<?xml version="1.0" encoding="UTF-8"?>
<svg id="_レイヤー_2" data-name="レイヤー 2" xmlns="http://www.w3.org/2000/svg" viewBox="0 0 141 179.5">
  <defs>
    <style>
      .cls-1 {
        fill: #fff;
      }

      .cls-2 {
        isolation: isolate;
      }

      .cls-3 {
        fill: #3eb157;
      }

      .cls-4 {
        fill: #010100;
      }
    </style>
  </defs>
  <g id="Layer_2" data-name="Layer 2">
    <g id="_レイヤー_1-2" data-name=" レイヤー 1">
      <g>
        <g>
          <circle class="cls-3" cx="70.5" cy="70.5" r="70.5"/>
          <g>
            <path class="cls-1" d="M113.3,68.5c0-19.1-19.2-34.7-42.8-34.7s-42.8,15.6-42.8,34.7,15.2,31.5,35.8,34.2c1.4.3,3.3.9,3.8,2.1.4,1.1.3,2.8.1,3.9,0,0-.5,3-.6,3.7-.2,1.1-.9,4.2,3.7,2.3,4.6-1.9,24.6-14.5,33.6-24.8h0c6.2-6.8,9.2-13.7,9.2-21.4h0Z"/>
            <g>
              <path class="cls-3" d="M99.1,79.5h-12c-.4,0-.8-.4-.8-.8h0v-18.7h0c0-.5.4-.8.8-.8h12c.4,0,.8.4.8.8v3c0,.5-.4.8-.8.8h-8.2v3.2h8.2c.4,0,.8.4.8.8v3c0,.4-.4.8-.8.8h-8.2v3.2h8.2c.4,0,.8.4.8.8v3c0,.4-.4.8-.8.8v.1Z"/>
              <path class="cls-3" d="M54.6,79.5c.5,0,.8-.4.8-.8v-3c0-.4-.4-.8-.8-.8h-8.2v-14.8c0-.5-.4-.8-.8-.8h-3c-.5,0-.8.4-.8.8v18.7h0c0,.5.4.8.8.8h12v-.1Z"/>
              <rect class="cls-3" x="58" y="59.2" width="4.7" height="20.3" rx=".8" ry=".8"/>
              <path class="cls-3" d="M82.5,59.2h-3c-.4,0-.8.4-.8.8v11.1l-8.5-11.5h-3.2c-.4,0-.8.4-.8.8v18.7c0,.4.4.8.8.8h3c.4,0,.8-.4.8-.8v-11.1l8.6,11.6s.1.2.2.2h3.2c.4,0,.8-.4.8-.8v-18.7c0-.5-.4-.8-.8-.8h0l-.3-.3Z"/>
            </g>
          </g>
        </g>
        <g class="cls-2">
          <g class="cls-2">
            <g class="cls-2">
              <path class="cls-4" d="M35.34,179.5v-24.5h4.02v20.75h12.78v3.75h-16.8Z"/>
              <path class="cls-4" d="M55.29,179.5v-24.5h4.02v24.5h-4.02Z"/>
              <path class="cls-4" d="M64.29,179.5v-24.5h4.02l11.55,17.39v-17.39h4.09v24.5h-3.88l-11.76-17.88v17.88h-4.02Z"/>
              <path class="cls-4" d="M88.89,179.5v-24.5h16.38v3.75h-12.36v6.37h11.27v3.78h-11.27v6.86h12.74v3.75h-16.77Z"/>
            </g>
          </g>
        </g>
      </g>
    </g>
  </g>
</svg>