<?xml version="1.0" encoding="UTF-8"?>
<svg id="_レイヤー_2" data-name="レイヤー 2" xmlns="http://www.w3.org/2000/svg" viewBox="0 0 141 179.63">
  <defs>
    <style>
      .cls-1, .cls-2 {
        fill: #f39800;
      }

      .cls-3 {
        fill: #fff;
      }

      .cls-3, .cls-2 {
        fill-rule: evenodd;
      }

      .cls-4 {
        isolation: isolate;
      }

      .cls-5 {
        fill: #010100;
      }
    </style>
  </defs>
  <g id="Layer_2" data-name="Layer 2">
    <g id="_レイヤー_1-2" data-name=" レイヤー 1">
      <g>
        <g>
          <circle class="cls-1" cx="70.5" cy="70.5" r="70.5"/>
          <g>
            <path class="cls-2" d="M70.54,35.79h39.35c1.09,0,2.17,0,3.23.28,2.25.6,3.89,2.47,4.19,4.77.1.76.12,1.51.12,2.27v54.78c0,.99-.01,1.99-.27,2.96-.58,2.22-2.4,3.86-4.68,4.2-.95.14-1.9.15-2.86.15H30.88c-1.02,0-2.04-.02-3.04-.29-2.26-.61-3.9-2.51-4.17-4.83-.1-.83-.12-1.67-.12-2.51v-54.07c0-1.12-.04-2.26.27-3.35.67-2.36,2.23-3.75,4.62-4.21.98-.19,1.98-.16,2.98-.16h39.12Z"/>
            <path class="cls-3" d="M29.15,39.72h82.71c.02.24-.09.28-.16.35-7.96,7.56-15.92,15.13-23.88,22.69-5.65,5.36-11.29,10.73-16.93,16.1-.3.28-.44.32-.76.01-9.77-9.31-19.56-18.6-29.34-27.89-3.79-3.6-7.57-7.19-11.36-10.79-.11-.1-.23-.2-.35-.3.02-.06.04-.12.07-.18h0Z"/>
            <path class="cls-3" d="M111.85,101.23H29.13c.09-.2.23-.25.34-.33,11-7.79,22.01-15.57,33-23.37.25-.18.38-.18.61.04,2.36,2.26,4.74,4.51,7.1,6.77.24.23.37.24.62,0,2.37-2.27,4.76-4.53,7.13-6.8.2-.19.32-.21.55-.04,11.04,7.82,22.09,15.64,33.13,23.46.08.06.19.08.22.26h.02Z"/>
            <path class="cls-3" d="M59.9,74.56c-10.79,7.64-21.56,15.26-32.38,22.91v-53.68c10.81,10.27,21.59,20.51,32.38,30.76h0Z"/>
            <path class="cls-3" d="M113.5,97.48c-10.82-7.66-21.6-15.28-32.39-22.92,10.79-10.25,21.57-20.49,32.39-30.77v53.68h0Z"/>
          </g>
        </g>
        <g class="cls-4">
          <g class="cls-4">
            <path class="cls-5" d="M25.38,179.63c-.3-.49-.73-1.08-1.28-1.79-.55-.7-1.06-1.24-1.52-1.61,2.5-1.17,4.85-2.64,7.05-4.41,2.21-1.77,4.19-3.72,5.97-5.85-1.07-.82-2.11-1.55-3.12-2.21-1-.65-1.9-1.17-2.69-1.54l2.52-2.97c.86.4,1.79.9,2.77,1.5.98.61,1.97,1.26,2.97,1.96,1.03-1.52,1.92-3.08,2.68-4.69.76-1.61,1.36-3.2,1.8-4.76l4.1,1.4c-1.24,3.73-2.96,7.25-5.18,10.54,1.05.84,2.04,1.67,2.98,2.5.93.83,1.73,1.6,2.38,2.33-.33.28-.69.64-1.1,1.07-.41.43-.8.86-1.17,1.29-.37.43-.68.81-.91,1.14-.56-.7-1.25-1.47-2.08-2.31-.83-.84-1.72-1.68-2.68-2.52-1.84,2.24-3.9,4.29-6.16,6.16-2.26,1.87-4.7,3.45-7.31,4.76Z"/>
            <path class="cls-5" d="M56.74,168.36c.02-.33.03-.77.03-1.33v-1.68c0-.56-.01-1-.03-1.33.44.02,1.23.05,2.36.07,1.13.02,2.48.05,4.06.07,1.57.02,3.26.04,5.06.05,1.8.01,3.59.02,5.39.02s3.49-.01,5.09-.04c1.6-.02,2.98-.05,4.15-.07,1.17-.02,2-.06,2.49-.11-.02.3-.04.74-.05,1.29-.01.56-.01,1.13,0,1.7.01.57.02,1.01.02,1.31-.58-.02-1.44-.05-2.57-.07s-2.45-.05-3.96-.07c-1.5-.02-3.1-.04-4.79-.04h-5.13c-1.73,0-3.37.01-4.94.04-1.56.02-2.97.05-4.22.07-1.25.02-2.23.06-2.96.1Z"/>
            <path class="cls-5" d="M92.75,178.17c-.3-.51-.76-1.1-1.36-1.75-.61-.65-1.17-1.18-1.68-1.58,1.94-1.03,3.49-2.15,4.67-3.36,1.18-1.21,2.04-2.56,2.57-4.04s.83-3.13.88-4.95c.05-1.82-.08-3.84-.38-6.05l4.09-.35c.49,3.5.54,6.62.16,9.36s-1.3,5.15-2.75,7.23c-1.45,2.08-3.51,3.91-6.2,5.5ZM107.91,177.36l-2.28-1.82c.05-.37.08-1.14.09-2.31.01-1.17.02-2.55.04-4.17.01-1.61.02-3.24.02-4.9,0-2.05-.01-3.84-.04-5.36-.02-1.52-.06-2.71-.11-3.57h4.48c-.05.42-.08,1.09-.11,2.01-.02.92-.04,1.98-.05,3.17-.01,1.19-.02,2.38-.02,3.57v7.63c1-.42,2.08-.93,3.24-1.54,1.15-.61,2.3-1.25,3.43-1.93,1.13-.68,2.16-1.34,3.1-2,.93-.65,1.67-1.25,2.21-1.78,0,.44.04.99.12,1.64.08.65.17,1.28.28,1.87.11.59.19,1.02.26,1.28-.77.65-1.78,1.38-3.03,2.17s-2.58,1.58-4.01,2.34c-1.42.77-2.81,1.48-4.15,2.13-1.34.65-2.5,1.17-3.48,1.54Z"/>
          </g>
        </g>
      </g>
    </g>
  </g>
</svg>