<?xml version="1.0" encoding="UTF-8"?>
<svg id="_レイヤー_2" data-name="レイヤー 2" xmlns="http://www.w3.org/2000/svg" viewBox="0 0 141 186.11">
  <defs>
    <style>
      .cls-1 {
        fill: #3e3a39;
      }

      .cls-2 {
        fill: #fff;
      }

      .cls-3 {
        isolation: isolate;
      }

      .cls-4 {
        fill: #040000;
      }
    </style>
  </defs>
  <g id="_レイヤー_2-2" data-name=" レイヤー 2">
    <g id="_レイヤー_1-2" data-name=" レイヤー 1-2">
      <g>
        <g>
          <circle class="cls-1" cx="70.5" cy="70.5" r="70.5"/>
          <g>
            <path class="cls-2" d="M85.7,86.9h-.2c0,.1,15,26,15,26h.2c3.1-1.9,4.1-5.8,2.3-8.9l-8.5-14.8c-1.8-3.1-5.7-4.2-8.7-2.4h0l-.1.1Z"/>
            <path class="cls-2" d="M83.9,88l-2,1.2h0c-1.8,1.1-3.1,2.5-3.7,4.3-5.6-4.7-10.6-10.5-14.7-17.7-4.1-7.2-7.1-14.6-8.4-21.8,2,.5,4.1.3,6-.8l2-1.2-15-25.9-1.5.9h0l-.5.3h0c-.6.4-1.2.8-1.7,1.2-10.9,9.1-9.6,33.4,3.6,56.2,13.3,23.1,33.9,36.4,47.2,31.2.5-.2,1.1-.4,1.6-.7l2-1.2-15-25.9h0l.1-.1Z"/>
            <path class="cls-2" d="M49.9,25h-.2c0,.1,15,26,15,26h.2c3.1-1.9,4.1-5.8,2.3-8.9l-8.5-14.8c-1.8-3.1-5.7-4.1-8.7-2.4h0l-.1.1Z"/>
          </g>
        </g>
        <g class="cls-3">
          <g class="cls-3">
            <g class="cls-3">
              <path class="cls-4" d="M51.29,169.17v-7.81h-10.54v4.69h-2.97v-7h13.51v-1.82h-11.31v-2.52h25.97v2.52h-11.45v1.82h13.76v7h-3.08v-4.69h-10.68v7.81h-3.22ZM54.3,181.14c0,1.86,0,2.14,2.62,2.14h7.42c1.82,0,2.17-.6,2.38-3.92.67.49,1.93.95,2.8,1.08-.42,4.31-1.37,5.43-4.97,5.43h-7.84c-5.22,0-5.6-1.33-5.6-4.73h-7v1.72h-3.18v-12.6h24.22v10.89h-10.85ZM41.73,168.47v-1.93h7.98v1.93h-7.98ZM42.43,162.98h7.25v1.93h-7.25v-1.93ZM51.11,172.57h-7v2.1h7v-2.1ZM44.11,178.83h7v-2.1h-7v2.1ZM61.89,174.67v-2.1h-7.6v2.1h7.6ZM54.3,178.83h7.6v-2.1h-7.6v2.1ZM56.15,162.98h7.32v1.93h-7.32v-1.93ZM56.15,168.47v-1.93h8.19v1.93h-8.19Z"/>
              <path class="cls-4" d="M71.59,161.96v-2.66h13.27v2.66h-13.27ZM83.87,174.07v10.5h-7.84v1.5h-2.83v-12.01h10.68ZM83.7,164.27v2.59h-10.43v-2.59h10.43ZM73.27,171.73v-2.59h10.43v2.59h-10.43ZM83.7,154.51v2.59h-10.22v-2.59h10.22ZM81,176.73h-4.97v5.15h4.97v-5.15ZM104.66,166.9h-8.05v5.25h6.41v13.79h-3.29v-1.58h-9.42v1.75h-3.15v-13.97h6.02v-5.25h-8.09v-3.15h8.09v-5.08c-2.21.35-4.45.63-6.55.84-.14-.81-.6-2.07-.98-2.8,5.39-.59,11.55-1.68,15.19-2.97l2.63,2.8c-.14.14-.32.14-.81.14-1.68.52-3.78,1.01-6.06,1.43v5.64h8.05v3.15ZM99.73,181.35v-6.2h-9.42v6.2h9.42Z"/>
            </g>
          </g>
        </g>
      </g>
    </g>
  </g>
</svg>