<?xml version="1.0" encoding="UTF-8"?>
<svg id="_レイヤー_2" data-name="レイヤー 2" xmlns="http://www.w3.org/2000/svg" viewBox="0 0 1115.67 263.67">
  <defs>
    <style>
      .cls-1 {
        stroke: #f9a825;
        stroke-miterlimit: 10;
      }

      .cls-1, .cls-2 {
        fill: #fff;
      }

      .cls-1, .cls-3 {
        stroke-width: 3.35px;
      }

      .cls-4 {
        fill: #333;
      }

      .cls-3, .cls-5 {
        fill: none;
        stroke: #fff;
        stroke-linecap: round;
        stroke-linejoin: round;
      }

      .cls-6 {
        fill: #d52438;
      }

      .cls-5 {
        stroke-width: 1.67px;
      }

      .cls-7 {
        fill: #c1262e;
      }
    </style>
  </defs>
  <g id="_レイヤー_1-2" data-name="レイヤー 1">
    <g>
      <g>
        <rect class="cls-7" x="0" y="42.34" width="1115.67" height="185.19" rx="12.55" ry="12.55"/>
        <rect class="cls-6" x="0" y="35.51" width="1115.67" height="185.19" rx="12.55" ry="12.55"/>
        <g>
          <path class="cls-2" d="M343.58,140.05l-.59-.51v-9.25l.51-.51,8.24.25v-16.22l.68-.68h9.59l.76.59v16.3l6.96-.25.51.42v9.42l-.51.42-6.96-.25v10.78c1.61-.51,3.23-1.02,4.92-1.61v8.57c0,1.53-.34,2.04-1.78,2.63-1.02.42-2.12.85-3.14,1.27v1.78l.42,18.93c0,9.85-3.82,12.4-14.18,12.4-1.02,0-1.27-.17-1.61-1.02l-4.24-10.61c3.14,0,4.75-.17,6.28-.34,1.78-.17,2.29-.68,2.29-2.72v-14.77c-1.78.59-3.74,1.1-5.77,1.61l-.76-.42-3.4-9.93.42-.76c3.57-.68,6.71-1.36,9.51-2.04v-13.75l-8.15.25ZM369.05,160.08l.42-8.74v-2.12l-.25-6.71.68-.59,9.25.25h31.24l-7.22-3.14c2.72-4.75,4.16-8.32,5.77-13.16l.85-.42,10.27,3.99.25.76c-2.46,4.67-4.92,8.66-7.39,11.97l8.32-.25.59.59-.25,6.62v2.21l.42,8.74h-8.24c.17.42.17,1.02-.08,1.7-2.97,6.88-6.45,12.48-10.78,16.98,5.43,2.38,12.06,3.82,20.29,4.75l-5.86,9.68c-.34.51-.85.76-1.61.76-.34,0-.68-.08-1.1-.17-7.73-1.53-14.6-3.99-20.63-7.64-6.11,3.91-13.16,6.54-20.89,8.15-.42.08-.76.17-1.19.17-.59,0-1.19-.25-1.61-.76l-5.52-8.15c8.24-1.36,14.94-3.31,20.38-6.03-2.89-2.72-5.52-5.86-7.98-9.51v-.85l7.56-4.5-9.51.59-.51-.68v-4.5h-5.69ZM412.35,114.41c2.97,2.12,5.6,4.58,8.66,7.81l-.25.59c-17.91,2.38-28.53,3.65-46.27,4.33-.93.08-1.53-.17-1.78-.59l-4.92-8.49c19.78-.25,33.79-1.87,43.81-3.82l.76.17ZM377.62,141.92l-.76-.34c-1.27-3.74-2.55-7.13-4.25-10.36l.34-.68,8.74-2.8.85.25c1.78,3.06,3.4,6.45,4.5,10.1l-.34.68-9.08,3.14ZM386.45,155.58h17.23l5.18-.25,1.78,1.61v-5.77h-30.65v4.33l6.45.08ZM385.78,164.58c2.46,3.48,5.09,6.28,8.24,8.74,2.55-2.63,4.5-5.52,6.11-8.74h-14.35ZM392.31,140.98l-.68-.42c-.85-3.74-1.95-7.3-3.4-10.95l.25-.68,8.91-2.21.68.25c1.78,3.23,3.06,7.05,3.99,10.95l-.42.42-9.34,2.63Z"/>
          <path class="cls-2" d="M479.45,153.21h8.57l14.09-.25.59.59v7.9l-.59.59-14.09-.25h-8.57v3.4h18.68l14.09-.25.59.59v8.15l-.59.59-14.09-.25h-12.65c8.41,4.08,18.08,6.96,29.8,9.25l-6.45,9.08c-.25.42-.51.59-1.02.59-.25,0-.68,0-1.1-.17-11.38-3.23-19.95-6.96-27.42-12.14l.59,13.92h-12.65l.59-13.41c-7.47,4.92-16.56,9.25-26.83,12.57-.51.17-.85.25-1.1.25-.68,0-.93-.34-1.27-.76l-6.45-8.32c11.8-2.97,21.56-6.62,29.29-10.87h-12.23l-13.67.25-.59-.59v-8.15l.59-.59,13.67.25h18.42v-3.4h-7.98l-14.09.25-.59-.59v-7.9l.59-.59,14.09.25h7.98v-3.31h-12.82l-14.09.25-.59-.59v-8.15l.59-.59,14.09.25h2.04c-.42-1.95-1.02-3.82-1.61-5.69h-6.54l-13.67.25-.59-.59v-8.32l.59-.59,10.61.17c-1.02-2.55-2.21-5.09-3.23-6.88l.42-.68,8.91-2.97.68.25c1.61,2.8,3.57,6.79,5.01,10.36h2.72v-12.4l.59-.68h9.93l.68.59v12.48h4.16v-12.4l.59-.68h10.27l.68.59v12.48h2.55c1.87-3.65,3.4-7.56,4.24-10.7l.85-.34,10.44,3.4.25.85c-.93,1.87-2.29,4.33-3.74,6.71l10.53-.17.59.59v8.32l-.59.59-13.67-.25h-4.92c-.59,1.95-1.44,3.82-2.21,5.69h1.36l14.09-.25.59.59v8.15l-.59.59-14.09-.25h-13.33v3.31ZM466.8,135.38c.76,1.87,1.36,3.74,1.95,5.69h10.87c.51-1.87.93-3.74,1.36-5.69h-14.18Z"/>
          <path class="cls-2" d="M522.98,160.68c9.51-7.73,16.22-14.26,21.14-21.65-4.08.34-8.32.42-12.31.42l-.51-.51-.34-10.44.59-.51c6.37,0,12.65-.17,18.93-.59,1.53-3.48,2.8-7.22,3.99-11.38l.68-.42,11.63,1.7.51.59c-1.02,2.97-2.04,5.52-2.97,7.98,4.24-.68,8.49-1.44,12.73-2.46l.76.42.85,10.02-.51.76c-6.2,1.27-13.16,2.38-20.21,3.23-1.36,2.04-3.23,4.67-4.92,6.71,2.55-.76,4.58-1.1,7.98-1.1,5.26,0,9.08,3.31,10.36,8.15,5.35-2.04,11.38-4.16,18-6.37l.85.34,5.26,10.44-.42.76c-8.57,2.21-15.88,4.41-22.16,6.71.17,3.31.25,7.47.34,11.55l-.59.51-11.21.42-.68-.51v-6.96c-5.18,2.46-8.07,4.84-8.07,7.73s3.4,3.65,10.95,3.74c6.2.08,14.69-.68,22.16-1.78l.85.51.76,11.29-.51.68c-8.07.68-15.2,1.1-25.13,1.1-17.15,0-21.65-7.22-21.65-14.52,0-8.15,6.88-13.84,14.77-18.34,1.53-.85,3.23-1.7,5.09-2.55-.42-2.12-1.7-3.23-4.24-3.23-3.4,0-6.71.85-9.68,2.97-3.74,2.72-9.51,8.15-14.77,13.75l-.85.08-7.47-8.32v-.93Z"/>
          <path class="cls-2" d="M623.93,168.06c4.42-3.82,8.41-8.24,11.89-12.9,3.57-4.67,6.54-9.76,9.34-14.86h-3.99l-13.67.25-.59-.59v-9.76l.59-.59,13.67.25h7.3v-16.05l.59-.59h10.36l.59.59v16.05h9.42l13.75-.25.51.59v9.76l-.51.59-13.75-.25h-5.6c5.26,10.44,12.14,19.36,22.07,27.17l-7.47,10.02c-.34.42-.68.68-1.1.68-.51,0-1.02-.34-1.53-.93-1.78-2.12-3.48-4.24-5.09-6.37v7.98l-.42.42-9.34-.25h-.93l.34,15.54h-12.31l.34-15.54h-.76l-9.68.25-.59-.51v-7.3c-1.87,2.38-3.74,4.58-5.77,6.62-.51.51-.93.68-1.27.68-.42,0-.76-.25-1.1-.68l-5.26-6.62v23.09h-11.89l.42-26.23v-9.42c-1.1,2.55-1.95,4.08-3.23,6.2-.34.59-.76.85-1.1.85-.42,0-.76-.34-.93-.93l-3.14-11.72c6.62-11.46,11.8-24.71,14.43-39.65l.76-.42,10.61,2.29.42.76c-1.95,7.81-4.08,14.52-6.37,20.55v31.24ZM647.62,169.51h.93l.42-17.23c-2.72,6.03-6.03,11.8-9.93,16.98l8.57.25ZM669.52,169.25c-4.08-5.86-7.64-12.06-10.02-18.76l.34,19.02h1.1l8.57-.25Z"/>
          <path class="cls-2" d="M703.94,169.34l.68.42c1.1,3.91,1.78,7.56,2.29,12.14l-.34.68-4.92,1.1-.59-.51c-.34-3.4-.76-6.96-1.44-10.36-.51,5.77-1.27,10.19-2.12,13.41l-.68.42-6.11-1.44-.25-.68c1.1-5.09,1.95-10.1,2.38-15.62l.68-.51,6.03,1.02.34.68,4.08-.76ZM756.15,148.2h3.57l10.02-.25.59.59-.25,7.13v7.05l.25,7.47-.68.76-9.68-.25h-.76c3.57,5.35,8.07,9.59,14.94,13.5l-6.2,9.25c-.34.51-.68.76-.93.76-.34,0-.68-.17-1.1-.51-5.43-4.08-10.78-9.93-14.01-16.13-3.48,7.13-9.42,12.31-15.62,16.3-.51.34-.85.51-1.1.51s-.51-.25-.85-.59l-7.13-6.54c-.51,1.7-1.02,2.8-1.7,3.57-1.61,1.78-3.91,3.06-10.27,3.06h-1.95c-1.02,0-1.36-.25-1.7-1.1l-3.82-9.59c2.38.17,5.09.25,5.86.25,2.12,0,3.23-.34,3.91-1.27.51-.68.85-2.04,1.02-5.09l-2.21,1.1-.76-.25c-.76-3.23-1.87-6.62-2.8-8.66l.34-.68,3.48-1.27.68.34c.59,1.19,1.1,2.46,1.53,3.82.08-1.7.08-3.65.08-5.94h-16.3l-7.47.25-.59-.59.25-10.78v-24.79l-.25-12.31.59-.68,8.32.25h15.54l9.51-.25.76.51v8.66l-.68.51-9.59-.25v4.41l7.05-.25.76.51v5.01c8.07-5.43,15.03-13.33,18.76-22.58l.76-.25,10.19,2.46.25.76c-.34.68-.59,1.36-.93,2.04,3.91,5.86,9.85,10.95,18.34,15.54l-6.71,8.66c-.42.51-.68.76-1.02.76s-.68-.17-1.19-.59c-.68-.51-1.36-1.1-2.04-1.61v3.06l-.51.42-6.54-.17v3.99ZM709.29,130.45v-4.41h-4.42v4.41h4.42ZM709.29,143.27v-4.58h-4.42v4.58h4.42ZM704.87,156.35h4.42v-4.84h-4.42v4.84ZM710.39,168.4l.68.42c1.1,2.38,2.29,6.2,3.14,9.93l-.34.68-4.41,1.53-.68-.42c-.76-4.16-1.53-7.39-2.55-10.27l.25-.76,3.91-1.1ZM738.58,144.38l-.59-.51v-2.97c-.85.68-1.7,1.27-2.46,1.87-.76.51-1.27.76-1.7.76s-.76-.17-1.19-.59l-5.86-6.2v1.7l-.68.51-7.13-.25v4.58l7.05-.25.76.51v7.73l-.68.51-7.13-.25v4.84h2.55l7.73-.17.51.51c-.17,14.77-.85,23.77-2.12,29.04,6.03-3.14,12.82-8.32,15.28-14.43l.25-.59h-1.44l-9.85.25-.59-.68.42-7.81v-6.79l-.25-7.13.59-.59,10.02.25h3.23v-3.99l-6.71.17ZM741.29,155.84v7.22h3.48c.17-2.38.25-4.84.34-7.22h-3.82ZM757.51,135.97c-2.72-2.63-5.09-5.35-7.22-8.41-2.04,2.97-4.33,5.77-6.88,8.41l4.58.08h5.18l4.33-.08ZM756.07,155.84c-.08,2.38-.25,4.84-.42,7.22h4.16v-7.22h-3.74Z"/>
          <path class="cls-2" d="M796.05,184.71c12.31-2.55,20.04-7.9,22.24-13.16-1.1,1.1-3.48,1.95-8.15,1.95-7.81,0-12.06-4.08-12.06-10.1,0-10.1,7.81-19.19,15.28-19.19,2.63,0,3.48.25,4.24.42,0-1.87,0-3.48-.08-5.52-10.87.59-22.33,1.61-34.3,2.97l-.68-.51-.85-10.7.59-.76c11.8-.85,23.86-1.7,35.23-2.29v-11.46l.51-.59h11.72l.68.68c-.08,3.91-.17,7.39-.25,10.61,8.49-.34,16.98-.68,25.05-.76l.68.59v10.61l-.68.59c-8.41,0-16.9.08-25.13.42,0,4.67,0,9.59.25,15.37,1.1,3.23,1.87,7.13,1.87,10.36,0,5.52-1.19,9.59-3.57,13.92-4.16,7.47-11.46,12.14-19.53,14.77-.34.08-.59.17-.85.25-.42.17-.85.17-1.19.17-.51,0-.93-.17-1.36-.42l-9.68-8.24ZM814.31,154.23c-2.38,0-5.18,3.65-5.18,6.28,0,1.61.51,2.38,2.72,2.38,3.48,0,5.94-1.44,6.11-5.35-.59-2.38-1.95-3.31-3.65-3.31Z"/>
          <path class="cls-2" d="M872.48,135.97l-2.21-10.87.51-.76c12.9-2.89,25.98-4.92,35.23-6.11,4.24,0,7.81,3.31,7.81,7.39,0,1.53-.25,3.14-1.53,4.41-6.88,6.79-11.63,11.12-18.68,18.08,4.08-2.04,7.05-2.21,10.61-2.21,12.82,0,21.39,8.74,21.39,21.9,0,15.45-11.63,24.2-31.24,24.2-10.02,0-18.51-4.16-18.51-13.84,0-5.52,6.11-11.8,12.99-11.8,10.1,0,14.94,6.62,17.23,12.57,5.01-2.38,6.54-6.37,6.54-12.31s-4.5-10.7-11.55-10.7c-12.14,0-20.89,7.98-29.88,19.61l-.85.08-9.08-7.3-.08-.93c11.72-13.41,22.41-25.13,33.71-36.34-6.45,1.36-13.92,3.14-21.73,5.35l-.68-.42ZM889.71,176.3c-1.7,0-3.23.68-3.23,2.21,0,1.78,1.95,3.4,6.28,3.4,1.19,0,2.04-.08,2.72-.25-.85-3.65-3.74-5.35-5.77-5.35Z"/>
        </g>
        <polyline class="cls-3" points="1028.43 109.13 1060.48 141.18 1029.64 172.01"/>
        <g>
          <g>
            <path class="cls-2" d="M341.99,79.84l4.02-1.33.26.13c.55,3.37,2.3,3.89,7.72,3.89,3.4,0,6.97-.29,10.44-.81l.29.23.45,4.86-.19.29c-3.79.42-7.72.52-11.32.52-9.7,0-11.45-3.92-11.84-7.55l.16-.23ZM345.79,64.11c1.95.19,3.86.29,5.77.29,3.11,0,6.61-.32,10.02-.81l.23.19.13,4.57-.26.23c-3.08.55-6.52.81-10.15.81-1.82,0-3.92-.1-5.87-.29l-.26-.23.16-4.6.23-.16ZM361.68,61.87l1.78-1.04h.32c1.1,1.1,2.14,2.33,2.98,3.7l-.06.32-1.88,1.1-.32-.03c-.91-1.39-1.69-2.56-2.89-3.76l.06-.29ZM364.89,60.12l1.75-1.07h.32c1.1,1.13,2.04,2.24,2.89,3.63l-.03.32-1.82,1.07-.32-.03c-.88-1.43-1.65-2.43-2.85-3.66l.06-.26Z"/>
            <path class="cls-2" d="M386.23,65.05c-1.95,3.53-3.5,5.97-5.35,8.37.65-.06,1.26-.13,1.88-.19-.16-.55-.36-1.1-.55-1.59l.19-.26,2.27-.88.26.1c.71,1.69,1.3,3.24,1.69,4.96v-5.06l-.1-4.83.23-.23,4.83.1h1.52v-5.97l.23-.26h3.7l.26.23v3.66c0,.78,0,1.56-.03,2.33h1.75l4.83-.1.23.23-.1,4.83v7.36l.16,7.85c0,3.24-.52,4.09-5.61,4.09-.55,0-.62-.06-.75-.39l-1.43-3.99c.97.03,1.88.03,2.66-.03.58-.03.81-.19.81-.81v-4.44l-2.04,1.52-.32-.16c-.52-1.39-1.17-2.82-1.85-4.18-.71,1.91-1.65,3.4-2.72,4.7-.16.19-.29.26-.42.26s-.26-.1-.36-.26l-1.46-2.04v9.86h-4.18l.06-5.48-2.43,1.01-.23-.16c-.26-2.4-.65-4.73-1.17-6.36l.16-.23,2.33-.81.26.13c.49,1.26.84,2.82,1.1,4.34l.06-3.47v-2.14l-2.66,1.07-.26-.16c-.06-.39-.13-.78-.23-1.2-.29.06-.62.13-.94.16v5.51l.16,7.98h-4.15l.16-7.98v-4.9c-1.2.16-2.43.36-3.79.52l-.29-.16-.75-3.53.23-.23c.78,0,1.56-.03,2.3-.06.65-.91,1.26-1.85,1.85-2.79-1.39-1.43-2.79-2.53-4.51-3.7v-.26l1.75-2.69h.26l.78.49c.91-1.82,1.69-3.63,2.43-5.64l.29-.13,3.6,1.39.13.29c-1.17,2.17-2.5,4.51-3.66,6.23l.88.78c.81-1.39,1.56-2.85,2.37-4.44l.29-.13,3.27,1.69.1.29ZM378.12,78.8l.19.23c-.19,3.31-.49,6.03-1.07,8.5-.1.36-.19.49-.39.49-.1,0-.23-.03-.36-.1l-2.69-1.23c.65-2.66,1.04-5.22,1.1-8.27l.19-.16,3.02.55ZM390.64,69.33v8.69c.81-1.07,1.43-2.46,1.88-4.54.26-1.2.42-2.59.49-4.15h-2.37ZM397.13,69.33c-.1,1.01-.16,2.01-.29,2.98,1.13,1.65,2.14,3.34,2.98,5.16v-8.14h-2.69Z"/>
            <path class="cls-2" d="M417.67,90.05h-4.47l.16-8.37v-4.05c-.52.68-1.04,1.26-1.69,1.82-.16.13-.32.19-.42.19-.19,0-.32-.13-.39-.36l-1.49-3.96c2.46-2.11,4.83-4.77,6.81-8.79l.32-.03,3.37,1.88.1.29c-.75,1.62-1.49,2.95-2.3,4.18v17.19ZM416.37,58.96l3.37,2.04.1.29c-2.17,3.05-4.67,5.41-7.13,7.2-.16.13-.29.19-.39.19-.13,0-.26-.13-.42-.36l-2.37-3.27c2.53-1.56,4.83-3.5,6.52-6.06l.32-.03ZM423.15,81.91l-4.25.1-.23-.19v-3.34l.19-.19,4.28.1h8.46v-1.62h-7l-4.83.1-.23-.23v-3.27l.23-.23,4.83.1h9.7l5.09-.1.23.23v3.27l-.23.23-3.5-.06v1.59l4.38-.1.19.16v3.4l-.19.16-4.34-.1.1,4.12c0,2.92-1.39,3.99-5.74,3.99-.65,0-.71-.06-.84-.39l-1.43-3.31-1.88,1.72h-.29c-1.01-1.39-2.76-3.05-3.92-3.89l.03-.29,2.2-1.95h-1.01ZM425.94,71.86l-4.64.1-.23-.23.1-4.47v-3.02l-.1-3.83.23-.23,4.64.1h6.91l4.64-.1.23.23-.1,3.99v2.69l.1,4.64-.23.23-4.64-.1h-6.91ZM433.3,63.27h-7.81v1.3h7.81v-1.3ZM425.49,67.55v1.33h7.81v-1.33h-7.81ZM425.68,81.91c1.13.84,2.46,2.08,3.5,3.21l-.1.23-.75.68c1.23-.03,1.91-.06,2.4-.13.68-.03.88-.23.88-1.01v-2.98h-5.93Z"/>
            <path class="cls-2" d="M447.24,63.62l4.57.16.23.23c-.29,3.6-.39,6.81-.39,8.69,0,2.85.29,4.77.75,6.42.36,1.26.78,2.2,1.49,2.2.88,0,1.98-1.75,2.72-4.73l3.24,4.09c.23.29.23.45.1.81-1.3,3.37-3.4,5.8-6.03,5.8-2.11,0-3.96-1.49-5.25-4.12-1.01-2.04-1.88-5.67-1.88-10.08,0-2.63.06-5.74.23-9.27l.23-.19ZM462.61,69.27l3.11-2.5.36-.06c3.63,2.46,6.71,6.13,8.59,10.47l-.1.29-4.12,2.56-.32-.1c-1.75-4.47-4.22-8.01-7.59-10.38l.06-.29Z"/>
            <path class="cls-2" d="M479.87,87.55c1.65-6.16,3.11-11.41,4.57-16.73-1.65.19-3.27.36-4.9.45l-.26-.23-.32-3.92.23-.26c2.4-.19,4.51-.42,6.49-.68.49-1.82,1.01-3.73,1.52-5.64l.29-.16,4.44.68.23.29c-.42,1.33-.84,2.79-1.2,4.09,1.3-.23,2.59-.49,3.79-.75l.26.13.29,4.05-.23.26c-1.75.32-3.6.65-5.42.94-1.72,6-3.31,11.93-4.96,18.58l-.29.13-4.41-.97-.13-.26ZM490.7,84.6l2.37-2.98.32-.03c1.62,1.75,3.15,2.2,6.84,2.2,1.98,0,4.12-.16,5.9-.52l.26.13v4.54l-.19.26c-2.01.26-3.47.36-6.13.36-5.67,0-7.49-1.33-9.37-3.6v-.36ZM493.75,74.78l.29-3.99.23-.29c1.62-.13,3.21-.19,4.73-.19,2.21,0,4.31.13,6.16.39l.23.26-.32,4.02-.29.19c-2.21-.19-4.35-.32-6.65-.32-1.33,0-2.69.06-4.15.16l-.23-.23Z"/>
            <path class="cls-2" d="M513.64,87.55c1.65-6.16,3.11-11.41,4.57-16.73-1.65.19-3.27.36-4.9.45l-.26-.23-.32-3.92.23-.26c2.4-.19,4.51-.42,6.49-.68.49-1.82,1.01-3.73,1.52-5.64l.29-.16,4.44.68.23.29c-.42,1.33-.84,2.79-1.2,4.09,1.3-.23,2.59-.49,3.79-.75l.26.13.29,4.05-.23.26c-1.75.32-3.6.65-5.42.94-1.72,6-3.31,11.93-4.96,18.58l-.29.13-4.41-.97-.13-.26ZM524.47,84.6l2.37-2.98.32-.03c1.62,1.75,3.15,2.2,6.84,2.2,1.98,0,4.12-.16,5.9-.52l.26.13v4.54l-.19.26c-2.01.26-3.47.36-6.13.36-5.67,0-7.49-1.33-9.37-3.6v-.36ZM527.52,74.78l.29-3.99.23-.29c1.62-.13,3.21-.19,4.73-.19,2.2,0,4.31.13,6.16.39l.23.26-.32,4.02-.29.19c-2.2-.19-4.34-.32-6.65-.32-1.33,0-2.69.06-4.15.16l-.23-.23ZM533.2,63.43l1.69-1.2.32-.03c1.2,1.01,2.33,2.14,3.31,3.44l-.03.32-1.78,1.26h-.32c-1.01-1.33-1.91-2.4-3.21-3.5l.03-.29ZM536.24,61.39l1.65-1.2.32-.03c1.2,1.01,2.24,2.04,3.21,3.34l-.03.32-1.69,1.23h-.32c-1.01-1.33-1.88-2.27-3.18-3.37l.03-.29Z"/>
            <path class="cls-2" d="M549.39,61.45l4.31.49.23.26c-.06,2.11-.45,4.67-1.01,7.39-.49,2.4-1.01,4.73-1.01,7.43,0,1.39.13,2.72.39,3.79.1.39.32.42.71.03.62-.62,1.2-1.23,2.17-2.5l.88.49c-1.1,3.47-1.46,4.44-1.39,5.9.13,2.04-.71,3.02-2.4,3.02-1.26,0-2.33-.94-2.98-2.01-.91-1.52-1.95-4.38-1.95-8.79,0-2.89.65-7.04,1.14-9.6.39-2.08.58-3.79.65-5.71l.26-.19ZM557.59,86.52c2.89-1.13,4.73-2.85,5.8-4.67.71-1.17,1.1-2.95,1.1-6,0-1.01,0-2.46-.06-3.96-2.14.1-4.38.13-6.74.16l-.19-.29-.1-3.96.26-.16c2.17,0,4.44-.06,6.58-.19-.06-1.85-.19-3.83-.32-5.9l.26-.19,4.44-.1.23.23c.1,1.91.19,3.76.26,5.61,1.65-.13,3.15-.32,4.51-.49l.23.19.19,4.02-.19.23c-1.43.19-2.95.39-4.6.52.06,1.65.1,3.31.1,4.38,0,4.6-.62,7.07-1.78,8.82-1.13,1.78-2.95,3.53-5.48,4.6-.1.03-.19.06-.26.06-.13,0-.29-.06-.42-.16l-3.79-2.76Z"/>
            <path class="cls-2" d="M594.27,60.77c-.29,1.3-.65,2.56-.94,3.73,1.13-.23,2.27-.49,3.4-.78l.29.13.62,2.85c3.63.29,7.07,1.04,10.02,2.53l.1.32-1.33,3.6-.26.13c-1.04-.49-1.69-.55-2.63-.55-2.08,0-3.86.81-3.86,2.27,0,1.01.49,2.5,1.43,4.83,2.69,1.17,5.25,2.66,7.07,4.15v.32l-2.72,3.5-.29.03c-1.39-1.26-2.43-2.17-3.79-3.08-.1,2.63-2.95,4.34-6.61,4.34-4.22,0-6.81-1.69-6.81-5.06,0-3.05,2.59-5.19,6.06-5.19,1.13,0,1.43.06,2.11.16-.49-1.65-.78-2.69-.71-3.96.06-1.75,1.72-3.24,4.41-4.05-1.26-.23-2.85-.36-4.41-.45l-.16-.23.81-1.85c-1.39.29-2.82.58-4.25.78-1.95,5.41-4.41,9.7-7.65,14.27l-.32.06-3.83-2.46v-.29c2.72-3.27,4.93-7.04,6.55-10.96-1.69.16-3.4.26-5.19.29l-.26-.19-.1-3.99.23-.23c2.46-.06,4.77-.23,6.97-.45.52-1.82.94-3.6,1.23-5.38l.29-.19,4.34.75.19.29ZM593.89,82.63c-1.1,0-1.75.68-1.75,1.23,0,.78.71,1.3,1.88,1.3,1.85,0,2.92-.65,2.89-1.95-.75-.42-1.56-.58-3.02-.58Z"/>
            <path class="cls-2" d="M616.79,61.45l4.31.49.23.26c-.06,2.11-.45,4.67-1.01,7.39-.49,2.4-1.01,4.73-1.01,7.43,0,1.39.13,2.72.39,3.79.1.39.32.42.71.03.62-.62,1.2-1.23,2.17-2.5l.88.49c-1.1,3.47-1.46,4.44-1.39,5.9.13,2.04-.71,3.02-2.4,3.02-1.26,0-2.33-.94-2.98-2.01-.91-1.52-1.95-4.38-1.95-8.79,0-2.89.65-7.04,1.13-9.6.39-2.08.58-3.79.65-5.71l.26-.19ZM624.99,86.52c2.89-1.13,4.73-2.85,5.8-4.67.71-1.17,1.1-2.95,1.1-6,0-1.01,0-2.46-.06-3.96-2.14.1-4.38.13-6.74.16l-.19-.29-.1-3.96.26-.16c2.17,0,4.44-.06,6.58-.19-.06-1.85-.19-3.83-.32-5.9l.26-.19,4.44-.1.23.23c.1,1.91.19,3.76.26,5.61,1.65-.13,3.15-.32,4.51-.49l.23.19.19,4.02-.19.23c-1.43.19-2.95.39-4.6.52.06,1.65.1,3.31.1,4.38,0,4.6-.62,7.07-1.78,8.82-1.13,1.78-2.95,3.53-5.48,4.6-.1.03-.19.06-.26.06-.13,0-.29-.06-.42-.16l-3.79-2.76Z"/>
            <path class="cls-2" d="M658.83,69.85c3.24-3.18,5.54-4.44,8.17-4.44s4.96,1.13,4.96,5.22c0,2.2-.23,4.09-.39,5.74-.13,1.46-.26,3.34-.26,4.12,0,.88.1,1.17.75,1.17.58,0,2.37-.84,4.05-3.05l1.33,4.34c.19.58.06.81-.36,1.2-1.95,1.82-3.96,2.66-6.16,2.66-2.5,0-4.51-1.2-4.51-5.09,0-1.49.16-3.4.32-5.29.13-1.46.29-3.18.29-4.57,0-1.56-.23-1.95-1.13-1.95-1.01,0-2.17.71-3.31,1.62-1.14.94-2.5,2.27-3.92,3.63-.06,3.4,0,7,.19,11.64,0,1.43-.97,2.56-2.59,2.56-1.3,0-1.98-.94-2.37-2.04-.32-.88-1.14-2.4-2.53-3.99-.49.68-.97,1.43-1.56,2.27h-.36l-2.59-3.47v-.36c2.56-3.44,4.83-6.16,7.33-9.24.03-.71.03-1.43.03-2.14-1.33.49-2.76,1.17-4.35,2.11l-.36-.1-1.78-3.57.1-.36c2.3-1.2,4.64-2.14,6.55-2.79.06-1.52.13-3.11.23-4.8l.23-.19,4.25.03.23.26c-.1,1.49-.19,2.95-.26,4.28.45.36.91.91.91,1.56,0,.58-.23,1.1-1.1,2.37l-.03.65ZM653.74,82.98c.39.13.55,0,.55-.65v-3.21c-.68.97-1.52,2.2-2.2,3.18.62.29,1.23.55,1.65.68Z"/>
            <path class="cls-2" d="M685.77,61.52l4.41.62.19.29c-.06,1.91-.42,3.96-1.26,7.33-.75,2.92-1.2,6.58-1.2,9.14,0,.65.03,1.3.19,2.01.16.65.36.71.97.1.65-.65,1.14-1.3,1.62-2.04l.97.52c-1.26,3.6-1.52,4.93-1.69,7.13-.06,1.43-.94,2.14-2.14,2.17-1.04,0-1.98-.68-2.56-1.43-1.04-1.43-1.85-3.99-1.85-7.68,0-3.15.36-7.72,1.17-11.38.52-2.4.91-4.64.94-6.61l.23-.16ZM708.5,86.94c-1.14-1.33-2.27-2.43-3.27-3.18-.58,3.05-2.82,4.31-6.26,4.31s-6.48-1.46-6.48-5.06,3.24-5.16,6.19-5.16c.94-.03,1.26.03,2.04.13-.1-2.04-.16-4.22-.23-6.61-2.24.16-4.6.23-6.81.26l-.23-.26-.1-3.96.23-.19c2.37,0,4.6-.06,6.81-.19-.06-1.62-.06-3.4-.06-5.22l.26-.29h4.28l.26.26c0,1.65-.03,3.27-.03,4.83,1.33-.16,2.69-.36,3.96-.55l.32.16.58,3.92-.19.26c-1.33.23-2.92.45-4.64.62.03,2.92.16,5.67.32,8.11,2.56,1.07,4.38,2.46,5.97,4.02l-.03.36-2.53,3.37-.36.06ZM698.58,81.56c-1.3,0-1.98.52-1.98,1.2,0,.55.49,1.1,2.04,1.1,1.75,0,2.11-.62,2.01-2.01-.58-.19-1.07-.32-2.08-.29ZM705.29,60.45l1.78-.84.32.03c.94,1.23,1.72,2.43,2.4,3.89l-.1.32-1.82.88-.32-.1c-.68-1.49-1.33-2.56-2.37-3.92l.1-.26ZM708.73,59.31l1.78-.84.32.03c.94,1.23,1.65,2.3,2.33,3.79l-.1.29-1.82.88-.32-.06c-.68-1.49-1.26-2.46-2.3-3.79l.1-.29Z"/>
            <path class="cls-2" d="M734.65,64.53l3.73-.68.23.19.68,4.05-.19.26-3.83.49-3.86.58.68,3.83,5.19-.75,4.05-.71.29.16.68,4.05-.16.29-3.89.49-5.35.78.39,2.11,1.52,7.46-5.35,1.07-1.17-7.26-.49-2.59-5.74.84-3.96.71-.29-.13-.81-4.09.19-.29,4.12-.52,5.67-.84-.68-3.83-3.47.52-3.79.68-.32-.16-.78-4.05.19-.29,3.96-.49,3.4-.52-.71-3.92.16-.32,4.64-.75.29.23.75,3.99,4.02-.58Z"/>
            <path class="cls-2" d="M756.25,77.11l-3.7,1.13-.32-.1-1.07-3.6.1-.26,3.96-.97,1.1-.29-1.43-4.44.16-.26,3.83-1.1.26.13,1.43,4.54,5.93-1.59,2.53-.81,2.63,2.24c.23.19.32.32.32.52,0,.13-.06.29-.16.49-1.46,2.72-2.63,4.44-4.51,6.61-.36.36-.49.36-.88.19l-3.27-1.43c1.1-1.23,2.01-2.43,2.82-3.73l-4.28,1.2.91,2.95,2.69,8.2-4.44,1.33-2.33-7.91-1.07-3.4-1.2.36Z"/>
            <path class="cls-2" d="M779.79,67.9l3.15-3.53.32-.06c1.95.97,4.54,2.69,6.58,4.47v.32l-3.37,3.92-.29.03c-1.95-1.88-4.12-3.47-6.36-4.86l-.03-.29ZM804.92,70.6c.1.26.13.45.13.62,0,.23-.1.36-.32.58-5.77,6.36-12.81,11.09-21.37,14.98l-.32-.06-2.92-4.38.06-.32c8.04-3.08,16.34-8.79,22.96-16.5l1.78,5.09Z"/>
            <path class="cls-2" d="M819.6,62.81l.19-.26h4.77l.23.26-.06,6.06,6.87-1.98,3.21-1.13,2.92,2.72c.36.32.52.52.52.78,0,.19-.06.39-.23.71-1.56,2.98-3.4,5.87-5.19,8.14-.42.52-.58.55-1.26.26l-3.6-1.56c1.49-1.91,2.59-3.7,3.53-5.32l-6.81,2.01-.06,5.77c0,.91.06,1.39.32,1.72.36.45,1.04.55,2.72.55,2.43,0,5.16-.19,8.98-.49l.26.16.03,4.44-.16.26c-2.98.23-5.97.39-8.85.39-3.7,0-6.19-.13-7.59-1.88-.91-1.1-.88-2.56-.88-4.7l.03-4.7-2.33.68-4.09,1.33-.36-.1-1.23-4.09.13-.32,4.38-1.17,3.53-1.01.06-7.55Z"/>
            <path class="cls-2" d="M843.93,83.63c4.34-3.73,6.78-9.24,7-16.5l.29-.23,4.57.39.26.26c-.36,7.72-2.98,13.55-6.78,17.77-.32.32-.49.45-.71.45-.13,0-.29-.03-.52-.16l-4.12-1.98ZM863.1,77.73c3.89-2.63,7.36-5.9,9.99-9.24l1.43,4.77c.1.32.16.55.16.71,0,.23-.1.36-.29.58-3.15,3.47-6.68,6.55-12.26,10.08-.36.23-.55.32-.75.32-.16,0-.29-.1-.52-.26l-3.15-2.53.26-3.66v-13.94l.26-.23h4.6l.26.26v13.13Z"/>
            <path class="cls-2" d="M901.73,74.16c0,9.08-4.44,12.97-10.77,12.97s-10.76-3.89-10.76-12.97,4.44-12.97,10.76-12.97,10.77,3.89,10.77,12.97ZM895.41,74.16c0-6.42-1.59-8.75-4.44-8.75s-4.44,2.33-4.44,8.75,1.59,8.75,4.44,8.75,4.44-2.33,4.44-8.75Z"/>
            <path class="cls-2" d="M914.27,68.33c0,1.43-.1,2.69-.23,4.12h.13c.81-1.39,1.75-2.85,2.72-4.12l5.38-6.81h7.3l-9.5,10.51,9.53,14.79h-7.23l-6.23-10.51-1.88,2.08v8.43h-5.9v-25.29h5.9v6.81Z"/>
          </g>
          <line class="cls-5" x1="315.6" y1="87.67" x2="305.82" y2="64.63"/>
          <line class="cls-5" x1="957.45" y1="87.67" x2="967.24" y2="64.63"/>
        </g>
      </g>
      <g>
        <circle class="cls-1" cx="161.28" cy="131.84" r="130.16"/>
        <g>
          <path class="cls-4" d="M115.41,58.54l4.07-1.35.26.13c.56,3.41,2.33,3.94,7.81,3.94,3.45,0,7.06-.3,10.57-.82l.3.23.46,4.92-.2.3c-3.84.43-7.81.53-11.45.53-9.81,0-11.59-3.97-11.98-7.65l.16-.23ZM119.25,42.62c1.97.2,3.91.3,5.84.3,3.15,0,6.7-.33,10.14-.82l.23.2.13,4.63-.26.23c-3.12.56-6.6.82-10.27.82-1.84,0-3.97-.1-5.94-.3l-.26-.23.16-4.66.23-.16ZM135.33,40.36l1.81-1.05h.33c1.12,1.12,2.17,2.36,3.02,3.74l-.07.33-1.9,1.12-.33-.03c-.92-1.41-1.71-2.59-2.92-3.81l.07-.3ZM138.58,38.59l1.77-1.08h.33c1.12,1.15,2.07,2.26,2.92,3.68l-.03.33-1.84,1.08-.33-.03c-.89-1.44-1.67-2.46-2.89-3.71l.07-.26Z"/>
          <path class="cls-4" d="M147.32,47.78l-3.64.1-.23-.2v-3.58l.2-.2,3.68.1h.89v-6.3l.16-.2h3.97l.2.2v6.3h.33l3.68-.1.16.16v3.64l-.16.16-3.68-.1h-.33v3.45l.92-.79h.33c1.41,1.48,2.56,3.02,3.51,4.46v.3l-2.89,2.36-.26-.07c-.46-.92-1.02-1.87-1.61-2.79v1.9l.2,12.28h-4.73l.33-13.23c-.72,2.13-1.54,3.84-2.66,5.74-.13.2-.26.3-.43.3s-.33-.13-.46-.36l-1.94-3.58c1.94-2.63,3.54-5.61,4.76-9.98h-.3ZM162.12,65.9v2.69h-4.76l.16-9.52v-14.74l-.1-4.53.2-.23,3.94.1h7.25l4.23-.1.23.23-.1,4.53v14.28l.16,9.72h-4.86v-2.43h-6.37ZM168.49,43.45h-6.37v3.64h6.37v-3.64ZM168.49,50.76h-6.37v3.74h6.37v-3.74ZM168.49,58.18h-6.37v3.94h6.37v-3.94Z"/>
          <path class="cls-4" d="M192.04,44.36c.89-1.25,1.54-2.66,2-4.2l.36-.1,3.18,1.35.1.39c-.59,1.54-1.28,3.22-2.33,4.66l-.33.1-2.99-1.48v1.81l-.2.16-3.81-.1h-4.63l-3.64.1-.23-.2v-3.45l.2-.2,3.68.1h4.63l3.81-.1.2.16v.98ZM191.22,65.63c5.42-2.07,7.35-4.69,7.35-10.93v-2.23l.23-.23h3.97l.23.23v2.95c0,.62-.03,1.25-.1,1.87,1.05,3.41,4.23,6.5,8.44,7.81l-2.56,3.38c-.16.23-.3.36-.53.36-.13,0-.3-.03-.53-.16-2.63-1.21-4.76-3.41-6.3-6.04-1.51,2.92-4,5.05-7.48,6.17-.13.03-.26.07-.36.07-.2,0-.3-.07-.43-.23l-1.94-2.36.07,1.87h-4.07v-1.48h-2.66v1.87h-3.91l.16-5.91v-1.64l-.1-3.28.2-.23,3.64.1h2.46l3.97-.1.23.23-.1,3.28v1.74l.1,2.89ZM190.86,51.29c5.42-1.97,7.71-4.79,7.71-11.16v-2.23l.23-.23h4.07l.23.23v2.95c0,1.77-.23,3.41-.69,4.89,2.63,1.31,5.68,3.09,8.37,5.09l.1.33-2.82,2.95-.36.1c-2.03-1.77-4.56-3.61-6.86-5.02-1.58,2.33-3.87,4.1-6.89,5.05-.13.03-.26.07-.36.07-.2,0-.3-.07-.43-.23l-2.3-2.76v.23l-.2.16-3.31-.1h-2.69l-3.28.1-.23-.2v-3.22l.2-.2,3.31.1h2.69l3.31-.1.2.16v3.02ZM181.38,42.16l-.23-.2v-3.22l.2-.2,3.31.1h2.69l3.31-.1.2.16v3.28l-.2.16-3.31-.1h-2.69l-3.28.1ZM181.38,56.38l-.23-.2v-3.22l.2-.2,3.31.1h2.69l3.31-.1.2.16v3.28l-.2.16-3.31-.1h-2.69l-3.28.1ZM187.22,60.94h-2.66v2.4h2.66v-2.4ZM197.46,56.48l.1.39c-.59,1.54-1.28,3.22-2.33,4.66l-.33.1-3.15-1.48-.1-.3c1.02-1.35,1.77-2.89,2.26-4.56l.36-.1,3.18,1.28ZM210.16,42.16c-1.21,1.58-1.97,2.56-3.35,3.84-.13.13-.2.2-.3.2s-.2-.07-.33-.16l-2.76-2.07c1.21-1.44,2-2.72,2.79-4.23l.3-.07,3.61,2.17.03.33ZM210.62,57.1c-1.25,1.58-2.03,2.53-3.41,3.81-.13.13-.2.2-.3.2s-.2-.07-.33-.16l-2.69-2.03c1.21-1.44,2-2.72,2.79-4.23l.3-.07,3.61,2.17.03.33Z"/>
          <path class="cls-4" d="M101.77,96.59c1.71-1.48,3.25-3.18,4.59-4.99,1.38-1.81,2.53-3.77,3.61-5.74h-1.54l-5.28.1-.23-.23v-3.77l.23-.23,5.28.1h2.82v-6.2l.23-.23h4l.23.23v6.2h3.64l5.32-.1.2.23v3.77l-.2.23-5.32-.1h-2.17c2.03,4.04,4.69,7.48,8.53,10.5l-2.89,3.87c-.13.16-.26.26-.43.26-.2,0-.39-.13-.59-.36-.69-.82-1.35-1.64-1.97-2.46v3.09l-.16.16-3.61-.1h-.36l.13,6.01h-4.76l.13-6.01h-.3l-3.74.1-.23-.2v-2.82c-.72.92-1.44,1.77-2.23,2.56-.2.2-.36.26-.49.26-.16,0-.3-.1-.43-.26l-2.03-2.56v8.93h-4.6l.16-10.14v-3.64c-.43.98-.75,1.58-1.25,2.4-.13.23-.3.33-.43.33-.16,0-.3-.13-.36-.36l-1.21-4.53c2.56-4.43,4.56-9.55,5.58-15.33l.3-.16,4.1.89.16.3c-.75,3.02-1.58,5.61-2.46,7.94v12.08ZM110.92,97.15h.36l.16-6.66c-1.05,2.33-2.33,4.56-3.84,6.56l3.32.1ZM119.39,97.05c-1.58-2.26-2.95-4.66-3.87-7.25l.13,7.35h.43l3.31-.1Z"/>
          <path class="cls-4" d="M133.04,97.08l.26.16c.43,1.51.69,2.92.89,4.69l-.13.26-1.9.43-.23-.2c-.13-1.31-.3-2.69-.56-4-.2,2.23-.49,3.94-.82,5.19l-.26.16-2.36-.56-.1-.26c.43-1.97.75-3.91.92-6.04l.26-.2,2.33.39.13.26,1.58-.3ZM153.22,88.91h1.38l3.87-.1.23.23-.1,2.76v2.72l.1,2.89-.26.3-3.74-.1h-.3c1.38,2.07,3.12,3.71,5.78,5.22l-2.4,3.58c-.13.2-.26.3-.36.3-.13,0-.26-.07-.43-.2-2.1-1.58-4.17-3.84-5.42-6.24-1.35,2.76-3.64,4.76-6.04,6.3-.2.13-.33.2-.43.2s-.2-.1-.33-.23l-2.76-2.53c-.2.66-.39,1.08-.66,1.38-.62.69-1.51,1.18-3.97,1.18h-.75c-.39,0-.53-.1-.66-.43l-1.48-3.71c.92.07,1.97.1,2.26.1.82,0,1.25-.13,1.51-.49.2-.26.33-.79.39-1.97l-.85.43-.3-.1c-.3-1.25-.72-2.56-1.08-3.35l.13-.26,1.35-.49.26.13c.23.46.43.95.59,1.48.03-.66.03-1.41.03-2.3h-6.3l-2.89.1-.23-.23.1-4.17v-9.58l-.1-4.76.23-.26,3.22.1h6.01l3.68-.1.3.2v3.35l-.26.2-3.71-.1v1.71l2.72-.1.3.2v1.94c3.12-2.1,5.81-5.15,7.25-8.73l.3-.1,3.94.95.1.3c-.13.26-.23.53-.36.79,1.51,2.26,3.81,4.23,7.09,6.01l-2.59,3.35c-.16.2-.26.3-.39.3s-.26-.07-.46-.23c-.26-.2-.53-.43-.79-.62v1.18l-.2.16-2.53-.07v1.54ZM135.1,82.05v-1.71h-1.71v1.71h1.71ZM135.1,87.01v-1.77h-1.71v1.77h1.71ZM133.4,92.06h1.71v-1.87h-1.71v1.87ZM135.53,96.72l.26.16c.43.92.89,2.4,1.21,3.84l-.13.26-1.71.59-.26-.16c-.3-1.61-.59-2.86-.98-3.97l.1-.3,1.51-.43ZM146.43,87.43l-.23-.2v-1.15c-.33.26-.66.49-.95.72-.3.2-.49.3-.66.3s-.3-.07-.46-.23l-2.26-2.4v.66l-.26.2-2.76-.1v1.77l2.72-.1.3.2v2.99l-.26.2-2.76-.1v1.87h.98l2.99-.07.2.2c-.07,5.71-.33,9.19-.82,11.23,2.33-1.21,4.96-3.22,5.91-5.58l.1-.23h-.56l-3.81.1-.23-.26.16-3.02v-2.63l-.1-2.76.23-.23,3.87.1h1.25v-1.54l-2.59.07ZM147.48,91.86v2.79h1.35c.07-.92.1-1.87.13-2.79h-1.48ZM153.75,84.18c-1.05-1.02-1.97-2.07-2.79-3.25-.79,1.15-1.67,2.23-2.66,3.25l1.77.03h2l1.67-.03ZM153.19,91.86c-.03.92-.1,1.87-.16,2.79h1.61v-2.79h-1.44Z"/>
          <path class="cls-4" d="M163.46,85.76l-.23-.2v-3.58l.2-.2,3.18.1v-6.27l.26-.26h3.71l.3.23v6.3l2.69-.1.2.16v3.64l-.2.16-2.69-.1v4.17c.62-.2,1.25-.39,1.9-.62v3.31c0,.59-.13.79-.69,1.02-.39.16-.82.33-1.21.49v.69l.16,7.32c0,3.81-1.48,4.79-5.48,4.79-.39,0-.49-.07-.62-.39l-1.64-4.1c1.21,0,1.84-.07,2.43-.13.69-.07.89-.26.89-1.05v-5.71c-.69.23-1.44.43-2.23.62l-.3-.16-1.31-3.84.16-.3c1.38-.26,2.59-.53,3.68-.79v-5.32l-3.15.1ZM173.31,93.5l.16-3.38v-.82l-.1-2.59.26-.23,3.58.1h12.08l-2.79-1.21c1.05-1.84,1.61-3.22,2.23-5.09l.33-.16,3.97,1.54.1.3c-.95,1.81-1.9,3.35-2.86,4.63l3.22-.1.23.23-.1,2.56v.85l.16,3.38h-3.18c.07.16.07.39-.03.66-1.15,2.66-2.49,4.82-4.17,6.56,2.1.92,4.66,1.48,7.84,1.84l-2.26,3.74c-.13.2-.33.3-.62.3-.13,0-.26-.03-.43-.07-2.99-.59-5.65-1.54-7.98-2.95-2.36,1.51-5.09,2.53-8.07,3.15-.16.03-.3.07-.46.07-.23,0-.46-.1-.62-.3l-2.13-3.15c3.18-.53,5.78-1.28,7.88-2.33-1.12-1.05-2.13-2.26-3.09-3.68v-.33l2.92-1.74-3.68.23-.2-.26v-1.74h-2.2ZM190.05,75.85c1.15.82,2.17,1.77,3.35,3.02l-.1.23c-6.93.92-11.03,1.41-17.89,1.67-.36.03-.59-.07-.69-.23l-1.9-3.28c7.65-.1,13.06-.72,16.94-1.48l.3.07ZM176.63,86.48l-.3-.13c-.49-1.44-.98-2.76-1.64-4l.13-.26,3.38-1.08.33.1c.69,1.18,1.31,2.49,1.74,3.91l-.13.26-3.51,1.21ZM180.04,91.76h6.66l2-.1.69.62v-2.23h-11.85v1.67l2.49.03ZM179.78,95.24c.95,1.35,1.97,2.43,3.18,3.38.98-1.02,1.74-2.13,2.36-3.38h-5.55ZM182.3,86.12l-.26-.16c-.33-1.44-.75-2.82-1.31-4.23l.1-.26,3.45-.85.26.1c.69,1.25,1.18,2.72,1.54,4.23l-.16.16-3.61,1.02Z"/>
          <path class="cls-4" d="M215.66,90.85h3.31l5.45-.1.23.23v3.05l-.23.23-5.45-.1h-3.31v1.31h7.22l5.45-.1.23.23v3.15l-.23.23-5.45-.1h-4.89c3.25,1.58,6.99,2.69,11.52,3.58l-2.49,3.51c-.1.16-.2.23-.39.23-.1,0-.26,0-.43-.07-4.4-1.25-7.71-2.69-10.6-4.69l.23,5.38h-4.89l.23-5.19c-2.89,1.9-6.4,3.58-10.37,4.86-.2.07-.33.1-.43.1-.26,0-.36-.13-.49-.3l-2.49-3.22c4.56-1.15,8.34-2.56,11.32-4.2h-4.73l-5.28.1-.23-.23v-3.15l.23-.23,5.28.1h7.12v-1.31h-3.09l-5.45.1-.23-.23v-3.05l.23-.23,5.45.1h3.09v-1.28h-4.96l-5.45.1-.23-.23v-3.15l.23-.23,5.45.1h.79c-.16-.75-.39-1.48-.62-2.2h-2.53l-5.28.1-.23-.23v-3.22l.23-.23,4.1.07c-.39-.98-.85-1.97-1.25-2.66l.16-.26,3.45-1.15.26.1c.62,1.08,1.38,2.63,1.94,4h1.05v-4.79l.23-.26h3.84l.26.23v4.82h1.61v-4.79l.23-.26h3.97l.26.23v4.82h.98c.72-1.41,1.31-2.92,1.64-4.14l.33-.13,4.04,1.31.1.33c-.36.72-.89,1.67-1.44,2.59l4.07-.07.23.23v3.22l-.23.23-5.28-.1h-1.9c-.23.75-.56,1.48-.85,2.2h.53l5.45-.1.23.23v3.15l-.23.23-5.45-.1h-5.15v1.28ZM210.77,83.95c.3.72.53,1.44.75,2.2h4.2c.2-.72.36-1.44.53-2.2h-5.48Z"/>
        </g>
        <g>
          <path class="cls-6" d="M141.93,153.49l11.91-.27.54.45v9.76l-.54.45-11.91-.27v12.27l11.1-.18.54.45v9.67l-.54.54-13.34-.36h-54l-13.25.36-.63-.63v-9.49l.54-.54,10.21.18v-12.27l-11.91.27-.63-.63v-9.4l.54-.63,12,.27v-6.9c-1.7,1.61-3.31,3.04-4.93,4.3-.45.45-.81.63-1.16.63-.45,0-.81-.45-1.34-.99l-6.54-7.25c7.7-5.64,13.97-12.36,18.36-20.24l.81-.18,10.03,3.58.27.9c-.99,1.7-2.06,3.4-3.31,5.1h43.61l13.34-.27.54.54v9.58l-.54.45-9.76-.18v10.93ZM71.72,203.1l-.36-.81c3.76-4.84,6.18-9.67,8.42-15.05l.72-.27,9.76,3.49.09.99c-1.79,5.91-4.84,12.18-8.24,16.93l-.99.18-9.4-5.46ZM98.95,207.85l-.9-.36c-.9-5.64-2.6-11.64-4.39-16.21l.54-.72,9.76-2.42.9.54c2.42,4.66,4.39,11.1,5.28,15.67l-.45.81-10.75,2.69ZM94.11,142.47v11.02h4.84v-11.02h-4.84ZM98.95,175.97v-12.36h-4.84v12.36h4.84ZM109.87,142.47v11.02h4.57v-11.02h-4.57ZM114.44,175.97v-12.36h-4.57v12.36h4.57ZM120.71,207.67l-.9-.27c-1.79-5.55-4.3-11.02-6.72-15.22l.36-.81,9.31-3.85.99.36c2.96,4.21,5.91,10.21,7.43,14.6l-.27.9-10.21,4.3ZM125.36,142.47v11.02h4.66v-11.02h-4.66ZM130.02,175.97v-12.36h-4.66v12.36h4.66ZM144.53,208.2l-.98-.18c-2.78-5.28-6.36-10.57-10.21-14.96l.09-.81,8.78-5.46.9.36c4.66,4.66,8.15,9.04,11.19,14.15l-.18.81-9.58,6.09Z"/>
          <path class="cls-6" d="M179.55,160.11l-9.94.27-.63-.54v-9.76l.54-.54,10.03.27h3.58v-26.15l.45-.54h10.48l.54.54v26.15h3.76l8.51-.27.45.45v9.94l-.45.45-8.51-.27h-3.76v7.52l3.67-2.69h.9c3.58,2.87,6.54,6.54,9.4,10.12l-.09.9-7.34,6-.9-.09c-1.52-2.6-3.58-5.55-5.64-8.06v4.3l.63,30.72h-12.63l.9-33.05c-2.33,6.45-5.55,12.54-8.51,17.1-.36.54-.81.81-1.16.81-.45,0-.9-.36-1.25-.99l-5.64-8.69c4.84-6.63,9.85-14.69,13.52-23.91h-.9ZM176.59,130.29l.9.27c2.15,4.66,3.49,8.42,4.84,13.52l-.54.81-7.52,3.13-.63-.54c-1.43-4.93-2.78-9.49-4.57-13.61l.36-.9,7.16-2.69ZM208.12,132.71l.36,1.07c-1.25,4.39-2.78,8.42-4.75,12.72-.27.63-.54.9-.9.9-.27,0-.63-.09-.99-.27l-6.81-2.6c1.97-5.73,3.13-10.12,4.03-14.78l.99-.27,8.06,3.22ZM232.74,123.93l.63-.63h11.46l.63.63v44.87l6-1.7.9.18,1.88,10.66-.54.72-8.15,1.97.36,28.21h-13.61l.36-24.9-10.66,2.69-11.82,3.13-.81-.27-2.15-10.93.54-.72,12.18-2.51,12.81-3.13v-48.27ZM223.52,167.37l-.9.27c-4.21-3.4-8.69-6.36-12.99-8.33l-.09-.9,6.18-7.79.9-.27c4.66,1.88,9.04,4.57,12.9,7.16l.18.9-6.18,8.96ZM225.04,147.31l-.9.09c-3.67-4.03-7.97-7.25-12.36-9.67v-.9l6.99-6.99.9-.09c4.39,2.33,8.24,4.57,12.45,8.51v.9l-7.07,8.15Z"/>
        </g>
      </g>
    </g>
  </g>
</svg>