<?xml version="1.0" encoding="UTF-8"?>
<svg id="_レイヤー_2" data-name="レイヤー 2" xmlns="http://www.w3.org/2000/svg" viewBox="0 0 824.46 209.86">
  <defs>
    <style>
      .cls-1 {
        fill: #333;
      }

      .cls-2 {
        fill: #d52438;
      }
    </style>
  </defs>
  <g id="_レイヤー_1-2" data-name="レイヤー 1">
    <g>
      <g>
        <path class="cls-2" d="M91.66,6.76c-3.36,12.82-3.68,14.61-4.38,18.61,4.7-.83,11.88-2.48,18.2-4.69l-3.61,23.58c-10.09,2.48-11.27,2.89-19.92,4.27l-1.94,11.03c12.49-3.58,21.17-5.1,31.37-5.1,5.52,0,20.68,0,27.79,11.31,2.6,4,5.79,11.72,3.58,24.27-2.94,16.68-17.2,34.19-38.84,34.19-13.24,0-22.39-6.76-27.97-18.89,7.63-2.62,14.84-6.76,20.92-12.27,2.22,7.72,8.26,8.69,10.33,8.69,5.51,0,11.58-4.69,12.92-12.27,2.29-12.96-6.79-15.44-15.2-15.44-5.1,0-15.27,1.38-28.39,5.38l-5.88,33.36c-1.76,6.07-4.66,16.27-17.07,16.27-9.93,0-34.9-12.41-31.69-30.61,1.17-6.62,5.25-12.55,16.86-20.54,8-5.51,14.01-8.27,19.11-10.62l2.8-15.86c-3.22.28-7.93.41-13.72.41-2.62,0-5.38,0-9.19-.28l3.94-22.34c6.71.28,9.72.41,12.34.41,2.48,0,4.55,0,11.31-.83.58-3.31,3.61-18.89,4.17-22.06h22.2ZM54.33,88.65c-5.22,3.03-11.78,6.62-12.54,10.89-.41,2.34,4.23,7.31,6.85,7.31,2.07,0,2.77-1.66,3.19-4l2.5-14.2ZM123.67,19.16c9.27,3.72,17.8,7.72,30.51,17.79l-16.12,17.92c-10.35-8.55-16.01-12.41-28.75-19.16l14.36-16.54Z"/>
        <path class="cls-2" d="M224.42,6.89l-8.92,50.6h-34.61l-12.64,71.69h-18.61L171.2,6.89h53.22ZM246.28,63.56l-7.68,43.57h-39.85l-1.07,6.07h-17.37l8.75-49.63h57.22ZM183.13,44.81h16.55l1.04-5.93h-16.54l-1.05,5.93ZM186.24,27.16h16.54l1.02-5.79h-16.55l-1.02,5.79ZM201.57,91.13h22.06l2.21-12.55h-22.06l-2.21,12.55ZM267.78,112.09c-1.99,11.31-7.59,17.23-29.58,17.65.13-6.2-.64-12-2.39-16.96h9.93c1.24,0,2.48,0,2.87-2.21l9.31-52.8h-34.19l8.97-50.88h53.63l-18.55,105.2ZM243.24,44.81h16.96l1.02-5.79h-16.96l-1.02,5.79ZM247.38,21.37l-1,5.65h16.96l1-5.65h-16.96Z"/>
        <path class="cls-2" d="M330.91,23.02c-8.34,16.82-12.96,31.3-15.39,45.08-.29,1.65-3.71,22.61.98,22.61,3.03,0,8.25-13.93,8.67-14.75,3.04,6.2,7.98,11.03,14.22,14.75-11.09,23.02-21.59,30.19-28.76,30.19-6.48,0-24.02-11.58-15.48-59.97,2.65-15.03,5.45-23.85,13.34-44.39l22.43,6.48ZM386.01,23.3c10.44,18.2,13.42,31.02,15.92,48.12.78,4.96,1.58,10.62,1.94,22.61l-23.88,5.65c.48-18.34-1.6-43.29-12.92-68.25l18.95-8.13Z"/>
        <path class="cls-1" d="M498.75,6.89l-1.86,1.93c12.67,15.72,26.75,28.13,50.22,39.71-6.51,5.65-11.88,11.86-15.76,19.03-7.2-3.72-13.89-8-19.96-12.68l-1.51,8.55h-69.63l1.22-6.89c-6.57,4.41-13.43,8.13-20.82,11.72-1.57-6.75-4.61-12.96-8.56-17.92,32.08-16.13,50.71-35.02,66.09-50.32l20.57,6.89ZM523.19,71.56l-10.16,57.63h-22.47l.95-5.38h-51.71l-.92,5.24h-21.92l10.14-57.49h96.1ZM442.94,106.02h51.71l2.87-16.27h-51.71l-2.87,16.27ZM499.62,44.95c-7.24-7.44-13.06-13.51-17.84-20.82-7.36,7.31-15.33,14.2-23.94,20.82h41.78Z"/>
        <path class="cls-1" d="M609.21,6.89c-.95,3.03-4.62,16.82-5.38,19.58l5.7,11.44c-3.41,1.38-6.88,3.86-10.19,6.2l-.66,3.72c8.02-4.83,23.19-14.2,40.56-14.2,19.58,0,33.74,13.51,29.22,39.16-3.09,17.51-12.28,27.44-21.22,34.33-13.84,10.48-29.88,14.62-50.23,16.68.46-7.31-.2-15.3-4.76-23.02,41.7,1.24,51.68-18.61,53.57-29.37,2.07-11.72-4.84-17.1-13.53-17.1-13.24,0-30.63,11.86-38.8,17.51-3.65,20.68-5.76,32.68-7.67,54.46l-22.62.83c1.7-9.65,2.32-13.93,3.12-18.48l3.01-17.1c-8.98,8.69-12.16,12.68-16.23,17.79l-11.31-18.75c5-4.14,27.75-22.89,32.54-26.61.9-5.1,2.1-10.34,3.44-15.58-10.03,1.38-13.92,1.52-20.81,1.52l3.7-20.96c3.51.41,5.83.55,7.62.55,1.38,0,5.54-.14,13.71-1.1.61-3.45,4.18-19.03,4.9-22.33l22.33.83Z"/>
        <path class="cls-1" d="M787.66,11.03c-.75,4.27-3.52,22.33-4.18,26.06,5.26-.14,16.55-.83,23.84-1.52l-3.44,22.61c-18.06,0-18.78.14-24.29.14-1.91,7.72-2.68,11.31-3.49,14.34-5.62,22.47-13.17,23.85-20.2,23.85-8,0-17.34-3.31-21.94-5.38,3.56-6.89,5.95-14.2,7.01-21.78,5.52,3.86,8.91,4.96,10.16,4.96,1.1,0,2.05-.69,2.69-2.76.54-1.52,1.81-6.34,3.01-12.41-6.55.41-25.06,1.38-29.75,1.38l-3.45,19.58c-3.01,17.1-3.21,18.2,3.46,20.27,4.05,1.24,8.9,1.93,21.44,1.93s21.15-1.1,30.02-2.9l-3.26,23.16c-14.93,1.79-30.84,2.07-34.42,2.07-33.23,0-44.33-6.62-43.5-21.51.23-4.41,1.25-11.03,2.42-17.65l4.06-23.03c-7.52.41-14.42,1.24-22.13,1.93l3.61-22.06c7.79-.41,16.53-.69,22.67-1.1,1.07-6.07,2.48-14.06,3.52-21.51l24.57-.97c-1.68,7.17-3.35,15.85-4.85,21.23,2.07,0,26.28-1.24,29.33-1.38,2.12-11.99,3.19-20.4,4.32-28.4l22.74.83Z"/>
      </g>
      <g>
        <path class="cls-2" d="M820.51,171.53c-24.72,2.64-51.5.46-76.28.33-12.76-.14-38.18-.42-50.91-.56-228.68-1.62-460.27.96-688.85.24-2.49-.01-4.49-1.14-4.47-2.52.02-1.32,1.92-2.4,4.27-2.47,186.94-5.06,374.47-6.26,561.63-6.7,58.02.02,121.11.5,178.94,1.59,14.72.54,36.7.56,51.27,1.71,8.54.73,17.05,1.69,25.34,3.42,2.41.5,3.62,1.99,2.72,3.32-.62.91-2.03,1.5-3.65,1.64h0Z"/>
        <path class="cls-2" d="M776.61,129.57c9.75,11.98,21.28,21.73,33.44,29.93,4.04,2.7,8.25,5.3,12.35,7.49,3.07,1.54,2.61,7.14-.6,7.98-8.57,2.26-16.88,6.09-24.51,11.3-4.57,3.22-8.99,6.79-13.05,10.91-3.65,3.64-7.16,7.68-10.1,11.97-1.34,1.9-3.83-.32-2.62-2.4,11.94-19.24,29.26-33.34,48.5-40.04l-.67,8c-4.41-2.79-8.45-5.74-12.51-8.9-8.04-6.31-15.71-13.3-22.73-21.15-3.54-3.89-6.81-8.12-9.95-12.46-.6-.82-.52-2.07.17-2.78.68-.7,1.7-.62,2.3.16h0Z"/>
      </g>
    </g>
  </g>
</svg>