<?xml version="1.0" encoding="UTF-8"?>
<svg id="_レイヤー_2" data-name="レイヤー 2" xmlns="http://www.w3.org/2000/svg" viewBox="0 0 304 66.17">
  <defs>
    <style>
      .cls-1 {
        fill: #0c0c0c;
      }

      .cls-2 {
        fill: #fff;
      }
    </style>
  </defs>
  <g id="_レイヤー_1-2" data-name="レイヤー 1">
    <g>
      <rect class="cls-1" width="304" height="24.84"/>
      <g>
        <path class="cls-2" d="M76.56,6.63h4.14v-2.12h2.79v2.12h3.74v2.35h-3.74v1.86c.18-.01.46-.02.82-.02,1.79,0,3.24.43,4.35,1.3,1.11.86,1.67,1.92,1.67,3.16,0,1.45-.44,2.6-1.33,3.45-.89.85-2.2,1.38-3.92,1.57l-.6-2.5c1.07-.15,1.84-.41,2.3-.78.46-.38.69-.91.69-1.59,0-.54-.29-.99-.88-1.38-.58-.38-1.35-.57-2.28-.57-.38,0-.65,0-.82.02v3.36c0,1.24-.23,2.09-.69,2.55s-1.3.68-2.52.68c-1.28,0-2.36-.39-3.24-1.16s-1.32-1.74-1.32-2.89c0-1.07.43-2.04,1.3-2.9.86-.86,2.09-1.49,3.69-1.88v-2.26h-4.14v-2.35ZM80.7,13.94c-1.46.46-2.19,1.16-2.19,2.1,0,.38.16.72.47,1.04.31.32.64.47,1,.47.29,0,.49-.05.58-.16.1-.11.15-.35.15-.71v-2.74ZM87.71,7.18l1.94-1.26c.99,1.4,1.9,2.84,2.76,4.31l-2.04,1.13c-.85-1.47-1.73-2.87-2.65-4.18Z"/>
        <path class="cls-2" d="M103.02,7.2h7.03v4.44h-2.65v-2.81h-4.38v3.56h-2.45v-3.56h-4.38v2.81h-2.65v-4.44h7.03v-.46h-6.24v-2.14h14.93v2.14h-6.24v.46ZM100.37,18.48h-3.05v.97h-2.76v-6.64h14.46v3.65l1.35.13c-.04.78-.07,1.38-.11,1.79-.04.41-.11.82-.22,1.2-.11.39-.23.66-.35.81s-.33.29-.64.42c-.3.13-.61.2-.92.23-.31.02-.76.05-1.36.07-.49.02-1.25.04-2.3.04-.89,0-1.55-.01-1.97-.04-.89-.04-1.47-.19-1.73-.47-.27-.28-.4-.88-.4-1.81v-.35ZM96.76,10.56v-1.26h3.25v1.26h-3.25ZM96.76,12.29v-1.26h3.25v1.26h-3.25ZM100.37,15.01v-.57h-3.05v.57h3.05ZM100.37,16.27h-3.05v.58h3.05v-.58ZM103.22,15.01h3.05v-.57h-3.05v.57ZM103.22,16.27v.58h3.05v-.58h-3.05ZM103.22,18.48c0,.24.03.39.08.43.05.04.21.07.47.08.28.01.65.02,1.11.02.57,0,1.05,0,1.42-.02.28-.01.47-.02.58-.04.11-.01.21-.05.31-.13.1-.07.16-.19.2-.35h-4.18ZM103.59,10.56v-1.26h3.25v1.26h-3.25ZM103.59,12.29v-1.26h3.25v1.26h-3.25Z"/>
        <path class="cls-2" d="M112.15,12.33v-2.01h6.01v-.57h-6.64v-2.28h7.05v1.84h3.47v-1.52c-.95.1-1.93.17-2.94.22l-.16-2.37c3.57-.19,6.43-.63,8.6-1.3l.55,2.35c-.84.27-1.91.51-3.21.73v1.88h3.6v2.37h-3.6v1.62h3.05v7.61h-2.83v-.78h-3.47v.78h-2.61v-7.61h3.03v-1.62h-3.83v.64h-6.04ZM111.97,6.93v-2.08h6.24v2.08h-6.24ZM114.47,20.51v.62h-2.5v-5.66h6.32v5.04h-3.82ZM112.15,14.9v-2.01h6.04v2.01h-6.04ZM114.47,18.57h1.61v-1.17h-1.61v1.17ZM125.07,18.02v-2.59h-3.47v2.59h3.47Z"/>
        <path class="cls-2" d="M133.8,5.39c-.57,2.24-.86,4.67-.86,7.3s.29,5.06.86,7.3l-2.74.31c-.61-2.32-.91-4.86-.91-7.61s.3-5.29.91-7.61l2.74.31ZM145.85,10.05h-2.87v4.73c.79.67,1.79,1.65,3.01,2.94l-1.83,1.83c-.52-.57-1-1.06-1.42-1.48-.52,1.5-1.79,2.25-3.8,2.25-1.4,0-2.49-.33-3.26-.98-.77-.65-1.16-1.55-1.16-2.71s.38-2.02,1.15-2.66,1.86-.96,3.27-.96c.47,0,.89.05,1.24.15v-3.1h-4.98v-2.5h4.98v-2.67h2.79v2.67h2.87v2.5ZM140.19,15.89c-.46-.26-.93-.38-1.41-.38-1.05,0-1.57.37-1.57,1.11,0,.79.52,1.19,1.57,1.19.5,0,.86-.11,1.08-.33.22-.22.33-.58.33-1.1v-.49Z"/>
        <path class="cls-2" d="M147.93,16.13c0-.68.22-1.39.65-2.12.43-.73,1.19-1.62,2.27-2.67l2.17,1.59c-1.38,1.33-2.06,2.29-2.06,2.9,0,.54.34.96,1.02,1.28.68.32,1.69.47,3.01.47.79,0,1.79-.09,2.99-.26,1.2-.18,2.23-.38,3.08-.61l.55,2.65c-.85.24-1.93.45-3.24.62-1.31.17-2.44.26-3.39.26-2.2,0-3.93-.37-5.18-1.12-1.25-.75-1.88-1.74-1.88-2.98ZM149.57,8.46v-2.57h10.95v2.57h-10.95Z"/>
        <path class="cls-2" d="M162.75,9.17v-2.5h3.89c.1-.54.2-1.25.31-2.14l2.81.16c-.05.46-.15,1.12-.29,1.97h8.14v2.5h-8.69c-.23.84-.49,1.65-.78,2.43l.02.02c1.17-.38,2.26-.57,3.27-.57,1.69,0,2.99.39,3.89,1.17.9.78,1.35,1.86,1.35,3.25s-.62,2.61-1.85,3.49c-1.24.88-2.9,1.31-4.99,1.31-1.64,0-3.19-.17-4.65-.51l.46-2.5c1.56.34,2.96.51,4.2.51s2.15-.23,2.85-.68c.69-.45,1.04-1.05,1.04-1.79,0-1.17-.81-1.75-2.43-1.75-.84,0-1.61.11-2.31.33-.7.22-1.45.59-2.25,1.11l-2.56-1.04c.86-1.83,1.5-3.42,1.9-4.78h-3.3Z"/>
        <path class="cls-2" d="M180.61,8.95l2.87.24c-.21,1.57-.35,2.6-.42,3.1l.02.02c1.74-1.12,3.45-1.68,5.13-1.68,1.87,0,3.24.36,4.11,1.08.86.72,1.3,1.84,1.3,3.36,0,1.62-.69,2.89-2.07,3.82-1.38.92-3.36,1.39-5.94,1.39-1.4,0-2.88-.09-4.44-.26l.22-2.52c1.76.18,3.17.27,4.22.27,1.48,0,2.63-.24,3.45-.73.81-.49,1.22-1.14,1.22-1.97,0-1.3-.83-1.95-2.5-1.95-1.36,0-3.18.69-5.44,2.08l-2.63-.57c.33-1.81.63-3.71.91-5.68ZM182.4,5.3c3.03.36,6.01.55,8.94.55v2.5c-3.14,0-6.23-.18-9.27-.55l.33-2.5Z"/>
        <path class="cls-2" d="M199.26,19.45l.68-2.52c1.31.43,2.2.64,2.65.64.1,0,.19-.05.28-.14.09-.09.18-.25.26-.47.08-.23.16-.5.22-.84.06-.33.11-.77.15-1.31.04-.54.06-1.14.06-1.81,0-1.36-.06-2.16-.17-2.39-.12-.23-.51-.35-1.18-.35h-1.66c-.74,3.29-1.78,6.66-3.12,10.13l-2.45-.8c1.19-3.19,2.14-6.3,2.85-9.33h-2.57v-2.5h3.12c.26-1.29.47-2.48.64-3.56l2.59.18c-.1.8-.28,1.93-.55,3.38h1.04c.85,0,1.47,0,1.85,0,.38,0,.79.09,1.21.26.42.16.68.32.79.46.11.14.23.48.36,1.03.13.55.19,1.06.19,1.54v2.4c0,4.52-1.1,6.77-3.3,6.77-.5,0-1.14-.08-1.93-.23-.79-.15-1.46-.34-2.02-.56ZM206.53,7.27l2.68-.73c1.12,2.98,2.07,6.04,2.87,9.16l-2.7.64c-.79-3.13-1.74-6.15-2.85-9.07Z"/>
        <path class="cls-2" d="M214.71,8.95l2.87.24c-.21,1.57-.35,2.6-.42,3.1l.02.02c1.74-1.12,3.45-1.68,5.13-1.68,1.87,0,3.24.36,4.11,1.08.86.72,1.3,1.84,1.3,3.36,0,1.62-.69,2.89-2.07,3.82-1.38.92-3.36,1.39-5.94,1.39-1.4,0-2.88-.09-4.44-.26l.22-2.52c1.76.18,3.17.27,4.22.27,1.48,0,2.63-.24,3.45-.73.82-.49,1.22-1.14,1.22-1.97,0-1.3-.83-1.95-2.5-1.95-1.36,0-3.18.69-5.44,2.08l-2.63-.57c.33-1.81.63-3.71.91-5.68ZM216.5,5.3c3.03.36,6.01.55,8.94.55v2.5c-3.14,0-6.23-.18-9.27-.55l.33-2.5Z"/>
      </g>
      <g>
        <path class="cls-1" d="M46.56,66.17c-3.19,0-5.59-.82-7.2-2.46s-2.41-3.86-2.41-6.66v-14.59c0-2.84.81-5.07,2.43-6.69,1.62-1.62,4.01-2.43,7.17-2.43s5.57.81,7.19,2.42c1.61,1.61,2.42,3.84,2.42,6.7v14.59c0,2.84-.81,5.07-2.43,6.69-1.62,1.62-4.01,2.43-7.17,2.43ZM46.56,60.34c1.27,0,2.17-.43,2.73-1.29s.83-2.04.83-3.54v-11.5c0-1.52-.28-2.7-.83-3.55s-1.46-1.28-2.73-1.28-2.16.43-2.71,1.28c-.56.85-.84,2.04-.84,3.55v11.5c0,1.5.28,2.68.84,3.54.56.86,1.46,1.29,2.71,1.29Z"/>
        <path class="cls-1" d="M79.25,33.74v4.02l-7.2,28.08h-6.56l6.98-26.27h-5.52v4.83h-6.05v-10.66h18.34Z"/>
        <path class="cls-1" d="M91.13,66.17c-2.97,0-5.28-.85-6.92-2.54-1.64-1.69-2.46-4.08-2.46-7.15v-.02c0-1.38.2-2.84.6-4.38.4-1.54.94-3.04,1.63-4.51l6.51-13.82h6.84l-7.73,16-1.52-.79c.77-1.46,2.13-2.19,4.08-2.19,2.66,0,4.72.84,6.18,2.51,1.46,1.67,2.19,4.03,2.19,7.07v.02c0,3.1-.82,5.51-2.46,7.23-1.64,1.71-3.96,2.57-6.94,2.57ZM91.13,60.34c1.09,0,1.92-.31,2.49-.94.57-.62.86-1.51.86-2.66v-.02c0-1.31-.29-2.33-.86-3.05-.57-.72-1.41-1.08-2.49-1.08s-1.88.36-2.46,1.09c-.58.73-.87,1.75-.87,3.06v.02c0,1.15.29,2.03.87,2.65.58.62,1.4.93,2.46.93Z"/>
        <path class="cls-1" d="M114.45,66.17c-2.97,0-5.28-.85-6.92-2.54-1.64-1.69-2.46-4.08-2.46-7.15v-.02c0-1.38.2-2.84.6-4.38.4-1.54.94-3.04,1.63-4.51l6.51-13.82h6.84l-7.73,16-1.52-.79c.77-1.46,2.13-2.19,4.08-2.19,2.66,0,4.72.84,6.18,2.51,1.46,1.67,2.19,4.03,2.19,7.07v.02c0,3.1-.82,5.51-2.46,7.23-1.64,1.71-3.96,2.57-6.94,2.57ZM114.45,60.34c1.09,0,1.92-.31,2.49-.94.57-.62.86-1.51.86-2.66v-.02c0-1.31-.29-2.33-.86-3.05-.57-.72-1.41-1.08-2.49-1.08s-1.88.36-2.46,1.09c-.58.73-.87,1.75-.87,3.06v.02c0,1.15.29,2.03.87,2.65.58.62,1.4.93,2.46.93Z"/>
        <path class="cls-1" d="M129.3,51.42h15.72v5.83h-15.72v-5.83Z"/>
        <path class="cls-1" d="M159.77,66.17c-2.97,0-5.28-.85-6.92-2.54-1.64-1.69-2.46-4.08-2.46-7.15v-.02c0-1.38.2-2.84.6-4.38.4-1.54.94-3.04,1.63-4.51l6.51-13.82h6.84l-7.73,16-1.52-.79c.76-1.46,2.13-2.19,4.08-2.19,2.66,0,4.72.84,6.18,2.51,1.46,1.67,2.19,4.03,2.19,7.07v.02c0,3.1-.82,5.51-2.46,7.23s-3.95,2.57-6.94,2.57ZM159.77,60.34c1.09,0,1.92-.31,2.49-.94.57-.62.86-1.51.86-2.66v-.02c0-1.31-.29-2.33-.86-3.05-.57-.72-1.41-1.08-2.49-1.08s-1.88.36-2.46,1.09c-.58.73-.87,1.75-.87,3.06v.02c0,1.15.29,2.03.87,2.65.58.62,1.4.93,2.46.93Z"/>
        <path class="cls-1" d="M184.02,66.17c-2.05,0-3.83-.37-5.35-1.1-1.52-.74-2.71-1.77-3.55-3.11s-1.27-2.91-1.27-4.7v-.53c0-1.6.44-3.11,1.32-4.52.88-1.41,2.06-2.48,3.53-3.2-1.25-.62-2.26-1.5-3.04-2.65-.77-1.15-1.16-2.37-1.16-3.66v-.84c0-2.55.87-4.59,2.6-6.13,1.74-1.54,4.04-2.31,6.91-2.31s5.17.77,6.91,2.31c1.74,1.54,2.6,3.58,2.6,6.13v.84c0,1.32-.39,2.56-1.17,3.7-.78,1.14-1.81,2.01-3.09,2.62,1.49.72,2.68,1.79,3.58,3.2.9,1.41,1.35,2.92,1.35,4.52v.53c0,1.8-.42,3.36-1.27,4.7-.85,1.34-2.03,2.38-3.55,3.11-1.52.74-3.31,1.1-5.35,1.1ZM184.02,60.34c1.24,0,2.23-.36,2.99-1.09s1.14-1.69,1.14-2.88v-.31c0-1.09-.38-1.96-1.14-2.63s-1.75-.99-2.99-.99-2.23.33-2.99.99c-.76.66-1.14,1.55-1.14,2.65v.33c0,1.18.38,2.13,1.14,2.85.76.72,1.75,1.08,2.99,1.08ZM184.02,46.56c1.04,0,1.88-.33,2.52-.99.63-.66.95-1.55.95-2.65v-.31c0-1.02-.32-1.83-.95-2.45-.63-.62-1.47-.93-2.52-.93s-1.87.31-2.51.93-.96,1.44-.96,2.47v.33c0,1.07.32,1.94.96,2.6s1.48.99,2.51.99Z"/>
        <path class="cls-1" d="M199.66,51.42h15.72v5.83h-15.72v-5.83Z"/>
        <path class="cls-1" d="M230.19,66.17c-1.93,0-3.65-.35-5.17-1.06-1.52-.71-2.72-1.73-3.62-3.07-.9-1.34-1.4-2.96-1.5-4.86h6.25c.15.99.52,1.75,1.1,2.3s1.35.82,2.27.82c1.15,0,2.03-.32,2.66-.96s.94-1.54.94-2.7v-.75c0-1.22-.25-2.16-.76-2.83-.51-.66-1.23-.99-2.17-.99h-2.72v-5.83h2.72c.76,0,1.36-.29,1.78-.87.42-.58.63-1.39.63-2.44v-.55c0-.99-.23-1.75-.7-2.28-.46-.54-1.11-.81-1.95-.81s-1.53.31-2.11.93c-.58.62-.98,1.49-1.18,2.63h-6.22c.26-2.99,1.3-5.3,3.11-6.95,1.81-1.65,4.02-2.47,6.62-2.47,2.84,0,5.04.73,6.59,2.17,1.55,1.45,2.33,3.51,2.33,6.17v.97c0,1.49-.38,2.78-1.13,3.88-.75,1.1-1.82,1.93-3.2,2.47,1.55.35,2.74,1.16,3.59,2.43.85,1.27,1.27,2.88,1.27,4.83v.97c0,2.81-.82,4.99-2.47,6.53-1.65,1.55-3.97,2.32-6.95,2.32Z"/>
        <path class="cls-1" d="M253.7,33.74v32.09h-6.05v-24.99l-3.91,1.48v-6.42l4.79-2.16h5.17Z"/>
        <path class="cls-1" d="M263.25,65.83l6.98-15.94,1.08.79c-.38.69-.95,1.19-1.7,1.5-.75.31-1.62.46-2.6.46-2.44,0-4.41-.86-5.9-2.57-1.49-1.71-2.24-3.99-2.24-6.83v-.02c0-3.12.82-5.54,2.46-7.25s3.95-2.57,6.94-2.57,5.3.86,6.93,2.59c1.63,1.73,2.45,4.18,2.45,7.34v.02c0,1.31-.22,2.71-.65,4.21-.43,1.49-.97,3-1.6,4.51l-5.74,13.75h-6.4ZM268.26,47.01c1.06,0,1.88-.34,2.46-1.03.58-.68.87-1.65.87-2.9v-.02c0-1.21-.29-2.14-.87-2.79-.58-.65-1.4-.98-2.46-.98s-1.9.33-2.48.99c-.58.66-.87,1.6-.87,2.8v.02c0,1.25.29,2.21.87,2.89.58.68,1.41,1.02,2.48,1.02Z"/>
        <path class="cls-1" d="M292.08,66.17c-3.19,0-5.59-.82-7.2-2.46-1.6-1.64-2.41-3.86-2.41-6.66v-14.59c0-2.84.81-5.07,2.43-6.69s4.01-2.43,7.17-2.43,5.57.81,7.18,2.42c1.61,1.61,2.42,3.84,2.42,6.7v14.59c0,2.84-.81,5.07-2.43,6.69-1.62,1.62-4.01,2.43-7.17,2.43ZM292.08,60.34c1.27,0,2.17-.43,2.73-1.29s.83-2.04.83-3.54v-11.5c0-1.52-.28-2.7-.83-3.55s-1.46-1.28-2.73-1.28-2.16.43-2.72,1.28-.84,2.04-.84,3.55v11.5c0,1.5.28,2.68.84,3.54s1.46,1.29,2.72,1.29Z"/>
      </g>
      <path class="cls-1" d="M5.32,52.94c7.37,12.38,14.96,13.29,17.08,12.03.2-.12.38-.23.55-.33l-5.64-9.47c-.18.1-.37.21-.56.33-1.71,1.02-3.62-1.55-6.1-5.73-2.49-4.17-3.84-7.07-2.13-8.09.19-.11.37-.22.55-.33l-5.64-9.47c-.18.11-.35.21-.55.33-2.12,1.26-4.93,8.36,2.44,20.74ZM25.96,62.84c.82-.49.31-1.44-.22-2.32,0,0-3.38-5.68-3.79-6.36-.41-.68-1.04-1.05-1.52-.76-.3.18-1,.56-1.91,1.07l5.63,9.45c.83-.49,1.28-.76,1.81-1.08ZM12.11,39.44c.48-.28.46-1.02.05-1.7-.41-.68-3.79-6.36-3.79-6.36-.53-.89-1.11-1.79-1.93-1.3-.54.32-.99.59-1.81,1.08l5.63,9.45c.88-.55,1.55-.99,1.86-1.17Z"/>
    </g>
  </g>
</svg>