<?xml version="1.0" encoding="UTF-8"?>
<svg id="_レイヤー_2" data-name="レイヤー 2" xmlns="http://www.w3.org/2000/svg" viewBox="0 0 22.59 30.99">
  <defs>
    <style>
      .cls-1 {
        fill: #222;
      }
    </style>
  </defs>
  <g id="_レイヤー_1-2" data-name="レイヤー 1">
    <path class="cls-1" d="M4.18,20.11c6.45,10.82,13.07,11.61,14.93,10.51.18-.11.33-.2.48-.29l-4.93-8.28c-.16.09-.32.19-.49.29-1.5.89-3.17-1.36-5.33-5.01-2.17-3.65-3.36-6.18-1.86-7.07.16-.1.32-.19.48-.29L2.53,1.68c-.15.09-.31.19-.48.29C.19,3.08-2.27,9.28,4.18,20.11ZM22.22,28.76c.72-.42.27-1.25-.2-2.03,0,0-2.96-4.97-3.31-5.56-.36-.6-.91-.92-1.33-.67-.26.16-.88.49-1.67.94l4.92,8.26c.72-.43,1.12-.67,1.58-.94ZM10.12,8.31c.42-.25.4-.89.04-1.48-.36-.6-3.31-5.56-3.31-5.56-.46-.78-.97-1.57-1.69-1.14-.47.28-.86.51-1.59.94l4.92,8.26c.77-.48,1.36-.87,1.62-1.02Z"/>
  </g>
</svg>